0
SECTION
2
HEADER
9
$INSUNITS
70
4
9
$ACADVER
1
AC1014
9
$HANDSEED
5
FFFF
0
ENDSEC
0
SECTION
2
TABLES
0
TABLE
2
VPORT
5
8
100
AcDbSymbolTable
0
ENDTAB
0
TABLE
2
LTYPE
5
5
100
AcDbSymbolTable
0
LTYPE
5
14
100
AcDbSymbolTableRecord
100
AcDbLinetypeTableRecord
2
BYBLOCK
70
0
0
LTYPE
5
15
100
AcDbSymbolTableRecord
100
AcDbLinetypeTableRecord
2
BYLAYER
70
0
0
ENDTAB
0
TABLE
2
LAYER
5
2
100
AcDbSymbolTable
70
2
0
LAYER
5
50
100
AcDbSymbolTableRecord
100
AcDbLayerTableRecord
2
0
70
0
6
CONTINUOUS
0
ENDTAB
0
TABLE
2
STYLE
5
3
100
AcDbSymbolTable
70
1
0
STYLE
5
11
100
AcDbSymbolTableRecord
100
AcDbTextStyleTableRecord
2
STANDARD
70
0
0
ENDTAB
0
TABLE
2
VIEW
5
6
100
AcDbSymbolTable
70
0
0
ENDTAB
0
TABLE
2
UCS
5
7
100
AcDbSymbolTable
70
0
0
ENDTAB
0
TABLE
2
APPID
5
9
100
AcDbSymbolTable
70
2
0
APPID
5
12
100
AcDbSymbolTableRecord
100
AcDbRegAppTableRecord
2
ACAD
70
0
0
ENDTAB
0
TABLE
2
DIMSTYLE
5
A
100
AcDbSymbolTable
70
1
0
ENDTAB
0
TABLE
2
BLOCK_RECORD
5
1
100
AcDbSymbolTable
70
1
0
BLOCK_RECORD
5
1F
100
AcDbSymbolTableRecord
100
AcDbBlockTableRecord
2
*MODEL_SPACE
0
BLOCK_RECORD
5
1B
100
AcDbSymbolTableRecord
100
AcDbBlockTableRecord
2
*PAPER_SPACE
0
ENDTAB
0
ENDSEC
0
SECTION
2
BLOCKS
0
BLOCK
5
20
100
AcDbEntity
100
AcDbBlockBegin
2
*MODEL_SPACE
0
ENDBLK
5
21
100
AcDbEntity
100
AcDbBlockEnd
0
BLOCK
5
1C
100
AcDbEntity
100
AcDbBlockBegin
2
*PAPER_SPACE
0
ENDBLK
5
1D
100
AcDbEntity
100
AcDbBlockEnd
0
ENDSEC
0
SECTION
2
ENTITIES
0
LWPOLYLINE
5
100
100
AcDbEntity
8
0
100
AcDbPolyline
90
42
70
1
43
0.0
10
-61.900920310869651
20
-36.346535756723533
10
-58.992018837593577
20
5.2526933862545997
42
0.41421356237310142
10
-60.662072461496422
20
7.1738703135573889
10
-79.615789416433202
20
8.4992433146957946
42
-0.41421356237307283
10
-81.656966098593159
20
10.847348483408705
10
-79.215489517548676
20
45.762090242502644
42
-0.41421356237309859
10
-76.867384348835671
20
47.80326692466258
10
-74.213853090411448
20
47.617713943368535
10
-73.725422654252426
20
54.602594600498961
10
-25.802456549638659
20
51.251494361926397
10
-26.290886985797705
20
44.266613704795887
10
-21.053844369541068
20
43.900404010628755
10
-21.053844369541103
20
43.901296034812596
42
0.05936141711762969
10
5.8036441766243456
20
45.318736211272068
10
19.20262797198032
20
48.412135363026408
10
17.852921674955169
20
54.258355758441894
10
17.627970620611293
20
55.232725823227128
10
46.274450524329282
20
61.846286820713289
10
47.849107904736371
20
55.025696367216653
10
50.577344071615975
20
55.655559316027485
42
-0.4142135623731048
10
53.215850551571258
20
54.006837481889242
10
66.038060649171243
20
-1.5322562108694016
42
-0.41421356237309687
10
64.389338815032971
20
-4.1707626908247111
10
61.661102648153552
20
-4.8006256396354736
10
63.235760028560613
20
-11.621216093132123
10
34.589280124842617
20
-18.234777090618291
10
34.364329070498755
20
-17.260407025833054
10
33.014622715397415
20
-11.414186643825504
10
22.559576778662567
20
-13.827924187374077
10
24.134231495101414
20
-36.346535756723448
42
-0.43481237496093339
10
21.939590569664944
20
-38.700000014901136
10
15.700000014901185
20
-38.70000001490115
10
15.700000014901187
20
-45.700000014901157
10
-14.699999984105403
20
-45.700000014901157
10
-14.699999984105403
20
-44.700000014901164
10
-14.700000013907722
20
-38.70000001490115
10
-24.299999985098832
20
-38.70000001490115
10
-24.299999985098832
20
-45.700000014901157
10
-54.699999984105425
20
-45.700000014901157
10
-54.699999984105425
20
-44.700000014901164
10
-54.700000013907754
20
-38.700000014901136
10
-59.706279385433149
20
-38.700000014901178
42
-0.43481237496093039
0
LWPOLYLINE
5
101
100
AcDbEntity
8
0
100
AcDbPolyline
90
4
70
1
43
0.0
10
-77.775950801462685
20
31.226264557048623
10
-62.313708022435407
20
30.145039214014652
10
-61.420825158510581
20
42.913859057340431
10
-76.883067937537888
20
43.995084400374338
0
LWPOLYLINE
5
102
100
AcDbEntity
8
0
100
AcDbPolyline
90
4
70
1
43
0.0
10
-62.746198159649005
20
23.96014210240374
10
-78.208440938676276
20
25.041367445437693
10
-79.101323802601058
20
12.272547602111931
10
-63.639081023573794
20
11.191322259077999
0
LWPOLYLINE
5
103
100
AcDbEntity
8
0
100
AcDbPolyline
90
4
70
1
43
0.0
10
-22.31339399736294
20
0.081525149694174071
10
-37.775636776390222
20
1.162750492728124
10
-38.668519640315012
20
-11.606069350597627
10
-23.206276861287741
20
-12.687294693631559
0
LWPOLYLINE
5
104
100
AcDbEntity
8
0
100
AcDbPolyline
90
4
70
1
43
0.0
10
-23.638766998501339
20
-18.872191805242494
10
-39.101009777528617
20
-17.790966462208544
10
-39.993892641453414
20
-30.559786305534281
10
-24.531649862426121
20
-31.641011648568252
0
LWPOLYLINE
5
105
100
AcDbEntity
8
0
100
AcDbPolyline
90
4
70
1
43
0.0
10
-20.988020996224552
20
19.035242104630846
10
-36.450263775251834
20
20.116467447664782
10
-37.343146639176624
20
7.3476476043390413
10
-21.880903860149363
20
6.2664222613050917
0
LWPOLYLINE
5
106
100
AcDbEntity
8
0
100
AcDbPolyline
90
4
70
1
43
0.0
10
-41.127598004811361
20
3.4020262513521966
10
-56.589840783838632
20
4.4832515943861475
10
-57.482723647763464
20
-8.2855682489396063
10
-42.020480868736172
20
-9.3667935919735399
0
LWPOLYLINE
5
107
100
AcDbEntity
8
0
100
AcDbPolyline
90
4
70
1
43
0.0
10
-39.802225003672973
20
22.355743206288871
10
-55.264467782700279
20
23.436968549322824
10
-56.157350646625076
20
10.668148705997066
10
-40.695107867597791
20
9.5869233629631108
0
LWPOLYLINE
5
108
100
AcDbEntity
8
0
100
AcDbPolyline
90
4
70
1
43
0.0
10
-42.452971005949749
20
-15.551690703584455
10
-57.915213784977055
20
-14.470465360550522
10
-58.808096648901852
20
-27.239285203876275
10
-43.34585386987456
20
-28.320510546910207
0
LWPOLYLINE
5
109
100
AcDbEntity
8
0
100
AcDbPolyline
90
4
70
1
43
0.0
10
-1.7499999999999827
20
-3.0999999999999912
10
-17.249999999999986
20
-3.0999999999999917
10
-17.249999999999986
20
-15.899999999999977
10
-1.7499999999999809
20
-15.899999999999977
0
LWPOLYLINE
5
110
100
AcDbEntity
8
0
100
AcDbPolyline
90
4
70
1
43
0.0
10
-1.7499999999999827
20
15.900000000000013
10
-17.249999999999986
20
15.900000000000013
10
-17.249999999999986
20
3.1000000000000085
10
-1.7499999999999831
20
3.1000000000000094
0
LWPOLYLINE
5
111
100
AcDbEntity
8
0
100
AcDbPolyline
90
4
70
1
43
0.0
10
-1.7499999999999827
20
-22.099999999999994
10
-17.249999999999986
20
-22.099999999999994
10
-17.249999999999986
20
-34.899999999999999
10
-1.7499999999999805
20
-34.899999999999999
0
LWPOLYLINE
5
112
100
AcDbEntity
8
0
100
AcDbPolyline
90
4
70
1
43
0.0
10
18.775636776390254
20
5.1627504927281294
10
3.3133939973629696
20
4.081525149694178
10
4.2062768612877761
20
-8.6872946936315749
10
19.668519640315065
20
-7.6060693505976413
0
LWPOLYLINE
5
113
100
AcDbEntity
8
0
100
AcDbPolyline
90
4
70
1
43
0.0
10
20.101009777528638
20
-13.790966462208559
10
4.6387669985013549
20
-14.872191805242492
10
5.5316498624261605
20
-27.641011648568249
10
20.993892641453442
20
-26.559786305534296
0
LWPOLYLINE
5
114
100
AcDbEntity
8
0
100
AcDbPolyline
90
4
70
1
43
0.0
10
17.450263775251884
20
24.116467447664785
10
1.9880209962245927
20
23.03524210463085
10
2.8809038601493975
20
10.266422261305095
10
18.343146639176677
20
11.347647604339029
0
LWPOLYLINE
5
115
100
AcDbEntity
8
0
100
AcDbPolyline
90
4
70
1
43
0.0
10
41.898527562457332
20
7.6734726030102616
10
26.795791558286169
20
4.1867312606803413
10
29.67516505388766
20
-8.2852055685706603
10
44.777901058058802
20
-4.7984642262407604
0
LWPOLYLINE
5
116
100
AcDbEntity
8
0
100
AcDbPolyline
90
4
70
1
43
0.0
10
55.462635597811804
20
33.383684060818887
10
40.359899593640655
20
29.896942718488969
10
43.239273089242118
20
17.425005889237955
10
58.342009093413267
20
20.911747231567869
0
LWPOLYLINE
5
117
100
AcDbEntity
8
0
100
AcDbPolyline
90
4
70
1
43
0.0
10
59.736705630345242
20
14.870652829899402
10
44.633969626174107
20
11.383911487569506
10
47.513343121775549
20
-1.0880253416815333
10
62.616079125946698
20
2.3987160006483821
0
LWPOLYLINE
5
118
100
AcDbEntity
8
0
100
AcDbPolyline
90
4
70
1
43
0.0
10
51.188565565278388
20
51.896715291738353
10
36.085829561107225
20
48.409973949408453
10
38.965203056708695
20
35.938037120157439
10
54.067939060879851
20
39.42477846248736
0
LWPOLYLINE
5
119
100
AcDbEntity
8
0
100
AcDbPolyline
90
4
70
1
43
0.0
10
25.401095021354223
20
10.227825662348808
10
40.503831025525379
20
13.714567004678708
10
37.624457529923909
20
26.186503833929727
10
22.521721525752749
20
22.699762491599827
0
LWPOLYLINE
5
120
100
AcDbEntity
8
0
100
AcDbPolyline
90
4
70
1
43
0.0
10
21.127024988820786
20
28.740856893268298
10
36.229760992991935
20
32.227598235598201
10
33.350387497390479
20
44.699535064849194
10
18.247651493219315
20
41.212793722519308
0
LWPOLYLINE
5
121
100
AcDbEntity
8
0
100
AcDbPolyline
90
4
70
1
43
0.0
10
-58.82223384652599
20
29.900891555910235
10
-43.359991067498726
20
28.819666212876264
10
-42.467108203573929
20
41.588486056202044
10
-57.9293509826012
20
42.669711399235986
0
LWPOLYLINE
5
122
100
AcDbEntity
8
0
100
AcDbPolyline
90
4
70
1
43
0.0
10
-39.86851689158933
20
28.575518554771865
10
-24.406274112562034
20
27.494293211737947
10
-23.513391248637241
20
40.263113055063677
10
-38.975634027664505
20
41.344338398097634
0
LWPOLYLINE
5
123
100
AcDbEntity
8
0
100
AcDbPolyline
90
4
70
1
43
0.0
10
-4.2730722854435754
20
37.653874337648723
10
-19.537592457132806
20
34.962327583811266
10
-17.314895782996086
20
22.356788345254973
10
-2.0503756113068587
20
25.048335099092395
0
ENDSEC
0
SECTION
2
OBJECTS
0
DICTIONARY
5
C
100
AcDbDictionary
3
ACAD_GROUP
350
D
3
ACAD_MLINESTYLE
350
17
0
DICTIONARY
5
D
100
AcDbDictionary
0
DICTIONARY
5
1A
330
C
100
AcDbDictionary
0
DICTIONARY
5
17
100
AcDbDictionary
0
ENDSEC
0
EOF
