0
SECTION
2
HEADER
9
$INSUNITS
70
4
9
$ACADVER
1
AC1014
9
$HANDSEED
5
FFFF
0
ENDSEC
0
SECTION
2
TABLES
0
TABLE
2
VPORT
5
8
100
AcDbSymbolTable
0
ENDTAB
0
TABLE
2
LTYPE
5
5
100
AcDbSymbolTable
0
LTYPE
5
14
100
AcDbSymbolTableRecord
100
AcDbLinetypeTableRecord
2
BYBLOCK
70
0
0
LTYPE
5
15
100
AcDbSymbolTableRecord
100
AcDbLinetypeTableRecord
2
BYLAYER
70
0
0
ENDTAB
0
TABLE
2
LAYER
5
2
100
AcDbSymbolTable
70
2
0
LAYER
5
50
100
AcDbSymbolTableRecord
100
AcDbLayerTableRecord
2
0
70
0
6
CONTINUOUS
0
ENDTAB
0
TABLE
2
STYLE
5
3
100
AcDbSymbolTable
70
1
0
STYLE
5
11
100
AcDbSymbolTableRecord
100
AcDbTextStyleTableRecord
2
STANDARD
70
0
0
ENDTAB
0
TABLE
2
VIEW
5
6
100
AcDbSymbolTable
70
0
0
ENDTAB
0
TABLE
2
UCS
5
7
100
AcDbSymbolTable
70
0
0
ENDTAB
0
TABLE
2
APPID
5
9
100
AcDbSymbolTable
70
2
0
APPID
5
12
100
AcDbSymbolTableRecord
100
AcDbRegAppTableRecord
2
ACAD
70
0
0
ENDTAB
0
TABLE
2
DIMSTYLE
5
A
100
AcDbSymbolTable
70
1
0
ENDTAB
0
TABLE
2
BLOCK_RECORD
5
1
100
AcDbSymbolTable
70
1
0
BLOCK_RECORD
5
1F
100
AcDbSymbolTableRecord
100
AcDbBlockTableRecord
2
*MODEL_SPACE
0
BLOCK_RECORD
5
1B
100
AcDbSymbolTableRecord
100
AcDbBlockTableRecord
2
*PAPER_SPACE
0
ENDTAB
0
ENDSEC
0
SECTION
2
BLOCKS
0
BLOCK
5
20
100
AcDbEntity
100
AcDbBlockBegin
2
*MODEL_SPACE
0
ENDBLK
5
21
100
AcDbEntity
100
AcDbBlockEnd
0
BLOCK
5
1C
100
AcDbEntity
100
AcDbBlockBegin
2
*PAPER_SPACE
0
ENDBLK
5
1D
100
AcDbEntity
100
AcDbBlockEnd
0
ENDSEC
0
SECTION
2
ENTITIES
0
CIRCLE
5
100
100
AcDbEntity
8
0
100
AcDbCircle
10
-63.101120668417053
20
-42.999999999999986
30
0
40
1.5000000000000036
210
0
220
0
230
1
0
CIRCLE
5
101
100
AcDbEntity
8
0
100
AcDbCircle
10
71.690033766463571
20
-6.8983721016468627
30
0
40
1.5000000000000036
210
0
220
0
230
1
0
CIRCLE
5
102
100
AcDbEntity
8
0
100
AcDbCircle
10
-83.051597839464307
20
52.546209405251822
30
0
40
1.5000000000000036
210
0
220
0
230
1
0
CIRCLE
5
103
100
AcDbEntity
8
0
100
AcDbCircle
10
-19.500000000000036
20
-43.000000000000014
30
0
40
1.5000000000000036
210
0
220
0
230
1
0
CIRCLE
5
104
100
AcDbEntity
8
0
100
AcDbCircle
10
55.943459962393227
20
61.307532433319885
30
0
40
1.5000000000000036
210
0
220
0
230
1
0
CIRCLE
5
105
100
AcDbEntity
8
0
100
AcDbCircle
10
29.344199444973434
20
-42.999999999999986
30
0
40
1.5000000000000036
210
0
220
0
230
1
0
CIRCLE
5
106
100
AcDbEntity
8
0
100
AcDbCircle
10
-3.4886560417258545
20
48.114790340000148
30
0
40
1.5000000000000031
210
0
220
0
230
1
0
ARC
5
107
100
AcDbEntity
8
0
100
AcDbCircle
10
-59.425675989109564
20
-45.000000000000014
30
0
40
3.9999999999999769
210
0
220
0
230
1
100
AcDbArc
50
270
51
305.09680122984952
0
ARC
5
108
100
AcDbEntity
8
0
100
AcDbCircle
10
-53.101120668417067
20
-53.99999999975001
30
0
40
7.0000000000000115
210
0
220
-0
230
1
100
AcDbArc
50
54.903198770150631
51
125.09680122984928
0
ARC
5
109
100
AcDbEntity
8
0
100
AcDbCircle
10
-46.776565347724564
20
-44.999999999999993
30
0
40
3.9999999999999942
210
0
220
0
230
1
100
AcDbArc
50
234.90319877015077
51
270
0
LINE
5
110
100
AcDbEntity
8
0
100
AcDbLine
10
-46.776565347724564
20
-48.999999999999986
30
0
11
29.344199444973455
21
-48.999999999999986
31
0
0
SPLINE
5
111
100
AcDbEntity
8
0
100
AcDbSpline
70
4
71
2
72
6
73
3
74
0
42
0.000000001
43
0.0000000001
44
0.0000000001
40
-0.92861806151838988
40
-0.92861806151838988
40
-0.92861806151838988
40
0
40
0
40
0
41
1
41
1
41
1
10
29.344199444973448
20
-48.999999999999986
30
0
10
35.344199444973448
20
-48.999999999999986
30
0
10
34.9256606025087
20
-43.014615698441041
30
0
0
LINE
5
112
100
AcDbEntity
8
0
100
AcDbLine
10
34.9256606025087
20
-43.014615698441041
30
0
11
33.448136346768351
21
-21.885034430901406
31
0
0
LINE
5
113
100
AcDbEntity
8
0
100
AcDbLine
10
33.448136346768351
20
-21.885034430901406
30
0
11
73.039740092526785
21
-12.744592490358272
31
0
0
ARC
5
114
100
AcDbEntity
8
0
100
AcDbCircle
10
71.690033766463571
20
-6.8983721016468627
30
0
40
6.0000000000000044
210
0
220
0
230
1
100
AcDbArc
50
-76.999999999999787
51
12.999999999999741
0
LINE
5
115
100
AcDbEntity
8
0
100
AcDbLine
10
77.536254155175044
20
-5.5486657755836868
30
0
11
76.7094589993022
21
-1.9674225049457195
31
0
0
ARC
5
116
100
AcDbEntity
8
0
100
AcDbCircle
10
72.81197874016128
20
-2.8672267223211816
30
0
40
3.9999999999999818
210
0
220
-0
230
1
100
AcDbArc
50
13.00000000000011
51
48.096801227584955
0
ARC
5
117
100
AcDbEntity
8
0
100
AcDbCircle
10
80.158593935662537
20
5.3197901439879827
30
0
40
7.0000000000000053
210
0
220
0
230
1
100
AcDbArc
50
157.90319877241478
51
228.09680122758465
0
ARC
5
118
100
AcDbEntity
8
0
100
AcDbCircle
10
69.966547965029577
20
9.4576880321076544
30
0
40
4.0000000000000293
210
0
220
0
230
1
100
AcDbArc
50
-22.096801227585171
51
12.999999999999572
0
LINE
5
119
100
AcDbEntity
8
0
100
AcDbLine
10
73.864028224170553
20
10.357492249483094
30
0
11
65.461906282109084
21
46.751080734316339
31
0
0
ARC
5
120
100
AcDbEntity
8
0
100
AcDbCircle
10
61.56442602296822
20
45.851276516940914
30
0
40
3.999999999999913
210
0
220
-0
230
1
100
AcDbArc
50
12.999999999999771
51
48.096801227584528
0
ARC
5
121
100
AcDbEntity
8
0
100
AcDbCircle
10
68.911041218469492
20
54.038293383249979
30
0
40
7.0000000000000213
210
0
220
0
230
1
100
AcDbArc
50
157.90319877241558
51
228.09680122758425
0
ARC
5
122
100
AcDbEntity
8
0
100
AcDbCircle
10
58.718995247836403
20
58.176191271369539
30
0
40
4.0000000000000853
210
0
220
0
230
1
100
AcDbArc
50
-22.096801227584461
51
12.999999999999345
0
LINE
5
123
100
AcDbEntity
8
0
100
AcDbLine
10
62.616475506977451
20
59.075995488744979
30
0
11
61.789680351104664
21
62.657238759383027
31
0
0
ARC
5
124
100
AcDbEntity
8
0
100
AcDbCircle
10
55.943459962393227
20
61.307532433319885
30
0
40
6.0000000000000178
210
0
220
-0
230
1
100
AcDbArc
50
12.999999999999488
51
102.99999999999956
0
LINE
5
125
100
AcDbEntity
8
0
100
AcDbLine
10
54.593753636330092
20
67.153752822031265
30
0
11
15.131766012528182
21
58.043235121104956
31
0
0
SPLINE
5
126
100
AcDbEntity
8
0
100
AcDbSpline
70
4
71
2
72
6
73
3
74
0
42
0.000000001
43
0.0000000001
44
0.0000000001
40
0
40
0
40
0
40
3.8821274901529188
40
3.8821274901529188
40
3.8821274901529188
41
1
41
3
41
1
10
15.131766012528169
20
58.043235121104985
30
0
10
-5.9723875892792568
20
53.170957353819759
30
0
10
-23.277998006539949
20
54.381083519035229
30
0
0
LINE
5
127
100
AcDbEntity
8
0
100
AcDbLine
10
-23.277998006539956
20
54.381083519035244
30
0
11
-82.633058996999495
21
58.531593706810767
31
0
0
ARC
5
128
100
AcDbEntity
8
0
100
AcDbCircle
10
-83.051597839464307
20
52.546209405251822
30
0
40
6.0000000000000044
210
0
220
-0
230
1
100
AcDbArc
50
85.999999999999417
51
175.99999999999989
0
LINE
5
129
100
AcDbEntity
8
0
100
AcDbLine
10
-89.036982141023202
20
52.964748247716585
30
0
11
-89.29336820131816
21
49.298256766565757
31
0
0
ARC
5
130
100
AcDbEntity
8
0
100
AcDbCircle
10
-85.303112000278929
20
49.019230871589215
30
0
40
3.9999999999999432
210
0
220
0
230
1
100
AcDbArc
50
175.9999999999994
51
211.09680122758451
0
ARC
5
131
100
AcDbEntity
8
0
100
AcDbCircle
10
-94.722367129763569
20
43.337890113838917
30
0
40
6.9999999999999574
210
0
220
0
230
1
100
AcDbArc
50
-39.096801227584827
51
31.096801227584923
0
ARC
5
132
100
AcDbEntity
8
0
100
AcDbCircle
10
-86.18546935457158
20
36.400932828694373
30
0
40
3.9999999999999547
210
0
220
0
230
1
100
AcDbArc
50
140.90319877241541
51
176.00000000000017
0
LINE
5
133
100
AcDbEntity
8
0
100
AcDbLine
10
-90.175725555610825
20
36.679958723670858
30
0
11
-92.385292880741304
21
5.0816738352449597
31
0
0
ARC
5
134
100
AcDbEntity
8
0
100
AcDbCircle
10
-86.399908579182352
20
4.6631349927802006
30
0
40
6
210
0
220
0
230
1
100
AcDbArc
50
175.99999999999997
51
265.99999999999983
0
LINE
5
135
100
AcDbEntity
8
0
100
AcDbLine
10
-86.818447421647122
20
-1.3222493087787441
30
0
11
-64.872038315930894
21
-2.8568917311495285
31
0
0
LINE
5
136
100
AcDbEntity
8
0
100
AcDbLine
10
-64.872038315930894
20
-2.8568917311495285
30
0
11
-67.685017775692472
21
-43.084372172185176
31
0
0
SPLINE
5
137
100
AcDbEntity
8
0
100
AcDbSpline
70
0
71
3
72
16
73
12
74
0
42
0.000000001
43
0.0000000001
44
0.0000000001
40
0
40
0
40
0
40
0
40
0.28171572715219256
40
0.28171572715219256
40
0.45089860510760504
40
0.45089860510760504
40
0.59026282843711309
40
0.59026282843711309
40
0.71875817030145439
40
0.71875817030145439
40
0.86635582002533484
40
0.86635582002533484
40
0.86635582002533484
40
0.86635582002533484
10
-67.685017775692472
20
-43.084372172185184
30
0
10
-67.750522761440493
20
-44.021137111517959
30
0
10
-67.727205395304793
20
-45.031793685300975
30
0
10
-67.347539180741592
20
-46.489765990776995
30
0
10
-67.125023652008821
20
-47.012961453354613
30
0
10
-66.509126338411335
20
-47.840167897371742
30
0
10
-66.169004377956
20
-48.144822470323199
30
0
10
-65.397600429673503
20
-48.599268476043484
30
0
10
-64.994198904394537
20
-48.748250905876269
30
0
10
-64.095374188186824
20
-48.956811715497778
30
0
10
-63.59419202629519
20
-48.999999999999993
30
0
10
-63.101120668417053
20
-48.999999999999993
30
0
0
LINE
5
138
100
AcDbEntity
8
0
100
AcDbLine
10
-63.101120668417053
20
-48.999999999999993
30
0
11
-59.425675989109564
21
-48.999999999999993
31
0
0
ENDSEC
0
SECTION
2
OBJECTS
0
DICTIONARY
5
C
100
AcDbDictionary
3
ACAD_GROUP
350
D
3
ACAD_MLINESTYLE
350
17
0
DICTIONARY
5
D
100
AcDbDictionary
0
DICTIONARY
5
1A
330
C
100
AcDbDictionary
0
DICTIONARY
5
17
100
AcDbDictionary
0
ENDSEC
0
EOF
