0
SECTION
2
HEADER
9
$INSUNITS
70
4
9
$ACADVER
1
AC1014
9
$HANDSEED
5
FFFF
0
ENDSEC
0
SECTION
2
TABLES
0
TABLE
2
VPORT
5
8
100
AcDbSymbolTable
0
ENDTAB
0
TABLE
2
LTYPE
5
5
100
AcDbSymbolTable
0
LTYPE
5
14
100
AcDbSymbolTableRecord
100
AcDbLinetypeTableRecord
2
BYBLOCK
70
0
0
LTYPE
5
15
100
AcDbSymbolTableRecord
100
AcDbLinetypeTableRecord
2
BYLAYER
70
0
0
ENDTAB
0
TABLE
2
LAYER
5
2
100
AcDbSymbolTable
70
2
0
LAYER
5
50
100
AcDbSymbolTableRecord
100
AcDbLayerTableRecord
2
0
70
0
6
CONTINUOUS
0
ENDTAB
0
TABLE
2
STYLE
5
3
100
AcDbSymbolTable
70
1
0
STYLE
5
11
100
AcDbSymbolTableRecord
100
AcDbTextStyleTableRecord
2
STANDARD
70
0
0
ENDTAB
0
TABLE
2
VIEW
5
6
100
AcDbSymbolTable
70
0
0
ENDTAB
0
TABLE
2
UCS
5
7
100
AcDbSymbolTable
70
0
0
ENDTAB
0
TABLE
2
APPID
5
9
100
AcDbSymbolTable
70
2
0
APPID
5
12
100
AcDbSymbolTableRecord
100
AcDbRegAppTableRecord
2
ACAD
70
0
0
ENDTAB
0
TABLE
2
DIMSTYLE
5
A
100
AcDbSymbolTable
70
1
0
ENDTAB
0
TABLE
2
BLOCK_RECORD
5
1
100
AcDbSymbolTable
70
1
0
BLOCK_RECORD
5
1F
100
AcDbSymbolTableRecord
100
AcDbBlockTableRecord
2
*MODEL_SPACE
0
BLOCK_RECORD
5
1B
100
AcDbSymbolTableRecord
100
AcDbBlockTableRecord
2
*PAPER_SPACE
0
ENDTAB
0
ENDSEC
0
SECTION
2
BLOCKS
0
BLOCK
5
20
100
AcDbEntity
100
AcDbBlockBegin
2
*MODEL_SPACE
0
ENDBLK
5
21
100
AcDbEntity
100
AcDbBlockEnd
0
BLOCK
5
1C
100
AcDbEntity
100
AcDbBlockBegin
2
*PAPER_SPACE
0
ENDBLK
5
1D
100
AcDbEntity
100
AcDbBlockEnd
0
ENDSEC
0
SECTION
2
ENTITIES
0
LWPOLYLINE
5
100
100
AcDbEntity
8
0
100
AcDbPolyline
90
38
70
1
43
0.0
10
-25.970690844500901
20
44.544955963925226
10
-25.48226040834183
20
51.52983662105575
10
-74.00376491338173
20
54.922790741795978
10
-74.492195349540779
20
47.937910084665454
10
-76.846457407751942
20
48.102536124875741
42
0.41421356237309304
10
-79.51475871776185
20
45.783017183586452
10
-81.956235298806277
20
10.868275424492566
42
0.41421356237308438
10
-79.636716357517031
20
8.1999741144826999
10
-60.682999402580293
20
6.8746011133442924
42
-0.4142135623730881
10
-59.291288037806744
20
5.2736203273384241
10
-62.200189511082783
20
-36.325608815639669
42
0.434812374960934
10
-59.70627938543322
20
-38.999999999999972
10
-55.000000000000043
20
-38.999999999999929
10
-55.000000000000043
20
-45.999999999999957
10
-24.000000000000057
20
-46.000000000000028
10
-24.000000000000057
20
-38.999999999999972
10
-15.000000000000037
20
-38.999999999999972
10
-15.000000000000036
20
-46.000000000000028
10
15.99999999999997
20
-46.000000000000028
10
15.99999999999997
20
-39
10
21.939590569664876
20
-38.999999999999957
42
0.43481237496093406
10
24.433500695314436
20
-36.325608815639669
10
22.876719275061077
20
-14.062597289946357
10
32.789797022464235
20
-11.773982961916385
10
34.364454402871225
20
-18.594573415413045
10
63.595556346427983
20
-11.846041785097317
10
62.020898966020937
20
-5.0254513316006566
10
64.456824127984063
20
-4.4630736957409862
42
0.41421356237309553
10
66.330371654087486
20
-1.4647708979182639
10
53.508161556487543
20
54.074322794840413
42
0.41421356237309853
10
50.509858758664777
20
55.947870320943863
10
48.073933596701501
20
55.385492685084152
10
46.49927621629444
20
62.206083138580766
10
17.268174272737753
20
55.457551508264793
10
18.850633248560953
20
48.603168632440763
10
17.401238043682081
20
48.268549383264336
42
-0.086572664964623527
10
-21.353844354639484
20
44.222187175842969
10
-21.353844354639484
20
44.222114607656628
0
CIRCLE
5
101
100
AcDbEntity
8
0
100
AcDbCircle
10
-53.101120668417082
20
-54.000000000749992
30
0
40
2.9999999999999982
210
0
220
0
230
1
0
CIRCLE
5
102
100
AcDbEntity
8
0
100
AcDbCircle
10
80.158593935662523
20
5.3197901439880013
30
0
40
2.9999999999999893
210
0
220
0
230
1
0
CIRCLE
5
103
100
AcDbEntity
8
0
100
AcDbCircle
10
68.911041218469464
20
54.038293383249979
30
0
40
3.0000000000000071
210
0
220
0
230
1
0
CIRCLE
5
104
100
AcDbEntity
8
0
100
AcDbCircle
10
-94.722367129763612
20
43.337890113838938
30
0
40
2.9999999999999893
210
0
220
0
230
1
0
SPLINE
5
105
100
AcDbEntity
8
0
100
AcDbSpline
70
0
71
3
72
16
73
12
74
0
42
0.000000001
43
0.0000000001
44
0.0000000001
40
0
40
0
40
0
40
0
40
0.28171572715218263
40
0.28171572715218263
40
0.45089860510760549
40
0.45089860510760549
40
0.5902628284371243
40
0.5902628284371243
40
0.71875817030145261
40
0.71875817030145261
40
0.86635582002528588
40
0.86635582002528588
40
0.86635582002528588
40
0.86635582002528588
10
-67.685017775692486
20
-43.084372172185169
30
0
10
-67.750522761440493
20
-44.021137111517909
30
0
10
-67.727205395304807
20
-45.031793685300954
30
0
10
-67.347539180741578
20
-46.489765990777052
30
0
10
-67.125023652008792
20
-47.01296145335462
30
0
10
-66.50912633841132
20
-47.840167897371728
30
0
10
-66.169004377956014
20
-48.14482247032317
30
0
10
-65.397600429673517
20
-48.599268476043434
30
0
10
-64.994198904394636
20
-48.74825090587624
30
0
10
-64.09537418818681
20
-48.956811715497764
30
0
10
-63.59419202629514
20
-48.999999999999979
30
0
10
-63.101120668417067
20
-48.999999999999979
30
0
0
LINE
5
106
100
AcDbEntity
8
0
100
AcDbLine
10
-63.101120668417067
20
-48.999999999999979
30
0
11
-61.601120668417082
21
-48.999999999999972
31
0
0
ARC
5
107
100
AcDbEntity
8
0
100
AcDbCircle
10
-61.601120668417082
20
-50.999999999999972
30
0
40
2.0000000000000018
210
0
220
-0
230
1
100
AcDbArc
50
0
51
90
0
LINE
5
108
100
AcDbEntity
8
0
100
AcDbLine
10
-59.601120668417082
20
-50.999999999999957
30
0
11
-59.601120668417082
21
-54.000000000749978
31
0
0
ARC
5
109
100
AcDbEntity
8
0
100
AcDbCircle
10
-53.101120668417082
20
-54.000000000749992
30
0
40
6.4999999999999947
210
0
220
0
230
1
100
AcDbArc
50
180
51
269.99999269759491
0
LINE
5
110
100
AcDbEntity
8
0
100
AcDbLine
10
-53.101121496848663
20
-60.500000000749935
30
0
11
-53.101055668989005
21
-60.499999999424986
31
0
0
ARC
5
111
100
AcDbEntity
8
0
100
AcDbCircle
10
-53.101120668417067
20
-53.999999999749981
30
0
40
6.4999999999999956
210
-0
220
0
230
1
100
AcDbArc
50
-89.999427047246357
51
0
0
LINE
5
112
100
AcDbEntity
8
0
100
AcDbLine
10
-46.60112066841706
20
-53.999999999749981
30
0
11
-46.60112066841706
21
-50.999999999999957
31
0
0
ARC
5
113
100
AcDbEntity
8
0
100
AcDbCircle
10
-44.60112066841706
20
-50.999999999999972
30
0
40
2.0000000000000018
210
0
220
-0
230
1
100
AcDbArc
50
90
51
180
0
LINE
5
114
100
AcDbEntity
8
0
100
AcDbLine
10
-44.60112066841706
20
-48.999999999999972
30
0
11
29.34419944497342
21
-48.999999999999972
31
0
0
SPLINE
5
115
100
AcDbEntity
8
0
100
AcDbSpline
70
0
71
3
72
16
73
12
74
0
42
0.000000001
43
0.0000000001
44
0.0000000001
40
0
40
0
40
0
40
0
40
0.27139154084166528
40
0.27139154084166528
40
0.44461719525771248
40
0.44461719525771248
40
0.59759161416871853
40
0.59759161416871853
40
0.76043057735830843
40
0.76043057735830843
40
0.95270832419947948
40
0.95270832419947948
40
0.95270832419947948
40
0.95270832419947948
10
29.344199444973427
20
-48.999999999999972
30
0
10
30.248837914445645
20
-48.999999999999972
30
0
10
31.198521664247036
20
-48.897952843698995
30
0
10
32.593672947234182
20
-48.390534422034783
30
0
10
33.094640644491108
20
-48.109383039929384
30
0
10
33.898895315159898
20
-47.374694214653033
30
0
10
34.193678874334765
20
-46.967798067576993
30
0
10
34.650840713658063
20
-46.017420675027324
30
0
10
34.793624938911961
20
-45.487171984483453
30
0
10
34.965086943831437
20
-44.314123832575177
30
0
10
34.97041104990393
20
-43.654576911479069
30
0
10
34.925660602508671
20
-43.01461569844102
30
0
0
LINE
5
116
100
AcDbEntity
8
0
100
AcDbLine
10
34.925660602508671
20
-43.01461569844102
30
0
11
33.448136346768294
21
-21.885034430901396
31
0
0
LINE
5
117
100
AcDbEntity
8
0
100
AcDbLine
10
33.448136346768294
20
-21.885034430901396
30
0
11
73.039740092526728
21
-12.744592490358233
31
0
0
ARC
5
118
100
AcDbEntity
8
0
100
AcDbCircle
10
71.690033766463557
20
-6.898372101646828
30
0
40
5.9999999999999885
210
-0
220
0
230
1
100
AcDbArc
50
-77.000000000000199
51
12.999999999999771
0
LINE
5
119
100
AcDbEntity
8
0
100
AcDbLine
10
77.536254155174973
20
-5.5486657755836628
30
0
11
77.198827573659173
21
-4.0871106784057964
31
0
0
ARC
5
120
100
AcDbEntity
8
0
100
AcDbCircle
10
79.14756770322964
20
-3.6372085697180778
30
0
40
1.9999999999999982
210
0
220
0
230
1
100
AcDbArc
50
103.00000000000023
51
192.99999999999972
0
LINE
5
121
100
AcDbEntity
8
0
100
AcDbLine
10
78.697665594541903
20
-1.6884684401476102
30
0
11
81.620775788897646
21
-1.0136152771160134
31
0
0
ARC
5
122
100
AcDbEntity
8
0
100
AcDbCircle
10
80.158593935662523
20
5.3197901439880013
30
0
40
6.4999999999999858
210
-0
220
0
230
1
100
AcDbArc
50
-76.999999999999986
51
102.99999879258189
0
LINE
5
123
100
AcDbEntity
8
0
100
AcDbLine
10
78.696412215893929
20
11.653195595905185
30
0
11
75.773301888071714
21
10.978342402060441
31
0
0
ARC
5
124
100
AcDbEntity
8
0
100
AcDbCircle
10
75.323399779384005
20
12.927082531630916
30
0
40
2.0000000000000009
210
0
220
0
230
1
100
AcDbArc
50
192.99999999999957
51
282.99999999999937
0
LINE
5
125
100
AcDbEntity
8
0
100
AcDbLine
10
73.374659649813523
20
12.477180422943199
30
0
11
65.951274856466057
21
44.63139256085617
31
0
0
ARC
5
126
100
AcDbEntity
8
0
100
AcDbCircle
10
67.90001498603651
20
45.081294669543894
30
0
40
1.9999999999999836
210
0
220
0
230
1
100
AcDbArc
50
102.99999999999955
51
192.99999999999989
0
LINE
5
127
100
AcDbEntity
8
0
100
AcDbLine
10
67.450112877348801
20
47.030034799114347
30
0
11
70.373223071704572
21
47.704887962145989
31
0
0
ARC
5
128
100
AcDbEntity
8
0
100
AcDbCircle
10
68.911041218469464
20
54.038293383249979
30
0
40
6.4999999999999645
210
-0
220
0
230
1
100
AcDbArc
50
-77.000000000000043
51
103.00000000000014
0
LINE
5
129
100
AcDbEntity
8
0
100
AcDbLine
10
67.448859365234327
20
60.371698804353997
30
0
11
64.525749170878598
21
59.696845641322426
31
0
0
ARC
5
130
100
AcDbEntity
8
0
100
AcDbCircle
10
64.07584706219086
20
61.645585770892872
30
0
40
1.9999999999999813
210
0
220
0
230
1
100
AcDbArc
50
192.99999999999949
51
283.0000000000004
0
LINE
5
131
100
AcDbEntity
8
0
100
AcDbLine
10
62.127106932620407
20
61.195683662205163
30
0
11
61.789680351104622
21
62.657238759383048
31
0
0
ARC
5
132
100
AcDbEntity
8
0
100
AcDbCircle
10
55.943459962393206
20
61.307532433319892
30
0
40
5.9999999999999929
210
0
220
-0
230
1
100
AcDbArc
50
12.999999999999657
51
102.99999999999982
0
LINE
5
133
100
AcDbEntity
8
0
100
AcDbLine
10
54.593753636330035
20
67.153752822031308
30
0
11
15.131766012528116
21
58.043235121104985
31
0
0
SPLINE
5
134
100
AcDbEntity
8
0
100
AcDbSpline
70
0
71
3
72
10
73
6
74
0
42
0.000000001
43
0.0000000001
44
0.0000000001
40
0
40
0
40
0
40
0
40
3.7074409309769143
40
3.7074409309769143
40
7.3346637182347267
40
7.3346637182347267
40
7.3346637182347267
40
7.3346637182347267
10
15.13176601252815
20
58.043235121104985
30
0
10
3.090367812183441
20
55.263259299968851
30
0
10
-1.6895780156240481
20
54.294328100343954
30
0
10
-9.2231675999919744
20
53.576043365451227
30
0
10
-13.213031994006828
20
53.677272533458982
30
0
10
-23.277998006539971
20
54.381083519035229
30
0
0
LINE
5
135
100
AcDbEntity
8
0
100
AcDbLine
10
-23.277998006539971
20
54.381083519035236
30
0
11
-82.633058996999551
21
58.531593706810781
31
0
0
ARC
5
136
100
AcDbEntity
8
0
100
AcDbCircle
10
-83.051597839464293
20
52.546209405251858
30
0
40
5.9999999999999805
210
0
220
-0
230
1
100
AcDbArc
50
86.000000000000085
51
175.99999999999997
0
LINE
5
137
100
AcDbEntity
8
0
100
AcDbLine
10
-89.03698214102323
20
52.964748247716614
30
0
11
-89.141616851639441
21
51.468402172326847
31
0
0
ARC
5
138
100
AcDbEntity
8
0
100
AcDbCircle
10
-91.13674495215912
20
51.607915119815111
30
0
40
2.0000000000000133
210
0
220
0
230
1
100
AcDbArc
50
266.00000000000023
51
355.99999999999983
0
LINE
5
139
100
AcDbEntity
8
0
100
AcDbLine
10
-91.276257899647362
20
49.612787019295446
30
0
11
-94.268950050426781
21
49.822056440527817
31
0
0
ARC
5
140
100
AcDbEntity
8
0
100
AcDbCircle
10
-94.722367129763612
20
43.337890113838938
30
0
40
6.500000000000016
210
0
220
-0
230
1
100
AcDbArc
50
85.999999999999872
51
265.99999999999966
0
LINE
5
141
100
AcDbEntity
8
0
100
AcDbLine
10
-95.17578420910047
20
36.853723787150081
30
0
11
-92.183092058321023
21
36.64445436591771
31
0
0
ARC
5
142
100
AcDbEntity
8
0
100
AcDbCircle
10
-92.32260500580928
20
34.649326265398074
30
0
40
2.0000000000000062
210
0
220
0
230
1
100
AcDbArc
50
-4.0000000000000568
51
85.999999999999801
0
LINE
5
143
100
AcDbEntity
8
0
100
AcDbLine
10
-90.327476905289629
20
34.509813317909817
30
0
11
-92.385292880741332
21
5.0816738352449597
31
0
0
ARC
5
144
100
AcDbEntity
8
0
100
AcDbCircle
10
-86.399908579182423
20
4.6631349927802113
30
0
40
5.9999999999999627
210
0
220
0
230
1
100
AcDbArc
50
176.00000000000006
51
266.00000000000011
0
LINE
5
145
100
AcDbEntity
8
0
100
AcDbLine
10
-86.818447421647164
20
-1.322249308778737
30
0
11
-64.872038315930908
21
-2.8568917311495134
31
0
0
LINE
5
146
100
AcDbEntity
8
0
100
AcDbLine
10
-64.872038315930908
20
-2.8568917311495134
30
0
11
-67.685017775692486
21
-43.084372172185169
31
0
0
LWPOLYLINE
5
147
100
AcDbEntity
8
0
100
AcDbPolyline
90
6
70
1
43
0.0
10
27.16473970975062
20
-41.93700646166468
10
27.333890169104961
20
-44.355970728060598
10
29.513349904327761
20
-45.418964266395875
10
31.523659180196219
20
-44.062993538335235
10
31.354508720841878
20
-41.644029271939345
10
29.175048985619078
20
-40.581035733604068
0
LWPOLYLINE
5
148
100
AcDbEntity
8
0
100
AcDbPolyline
90
6
70
1
43
0.0
10
53.624544167606388
20
62.01649613950535
10
54.17002148508206
20
59.653774298890255
10
56.488937279868885
20
58.944810592704812
10
58.262375757180045
20
60.598568727134477
10
57.716898439704394
20
62.961290567749572
10
55.397982644917569
20
63.670254273935015
0
LWPOLYLINE
5
149
100
AcDbEntity
8
0
100
AcDbPolyline
90
6
70
1
43
0.0
10
-80.872138104241486
20
53.609202943587121
10
-82.882447380109951
20
54.965173671647761
10
-85.061907115332758
20
53.902180133312484
10
-85.231057574687128
20
51.483215866916566
10
-83.220748298818634
20
50.127245138855955
10
-81.041288563595828
20
51.190238677191232
0
LWPOLYLINE
5
150
100
AcDbEntity
8
0
100
AcDbPolyline
90
6
70
1
43
0.0
10
-17.400000000000048
20
-41.787564434701764
10
-19.500000000000046
20
-40.575128869403571
10
-21.600000000000044
20
-41.787564434701792
10
-21.600000000000044
20
-44.212435565298222
10
-19.50000000000005
20
-45.424871130596415
10
-17.400000000000048
20
-44.212435565298222
0
LWPOLYLINE
5
151
100
AcDbEntity
8
0
100
AcDbPolyline
90
6
70
1
43
0.0
10
-5.4727777537626254
20
46.720781361612907
10
-3.2734697093572773
20
45.699486043982432
10
-1.289347997320518
20
47.093495022369694
10
-1.5045343296891112
20
49.508799318387432
10
-3.7038423740944593
20
50.530094636017907
10
-5.6879640861312097
20
49.136085657630645
0
LWPOLYLINE
5
152
100
AcDbEntity
8
0
100
AcDbPolyline
90
6
70
1
43
0.0
10
69.371117971676725
20
-6.1894083954613954
10
69.916595289152383
20
-8.5521302360765006
10
72.23551108393923
20
-9.2610939422619332
10
74.00894956125039
20
-7.6073358078322784
10
73.463472243774731
20
-5.2446139672171732
10
71.144556448987913
20
-4.5356502610317406
0
LWPOLYLINE
5
153
100
AcDbEntity
8
0
100
AcDbPolyline
90
6
70
1
43
0.0
10
-60.921660933194275
20
-41.93700646166468
10
-62.931970209062726
20
-40.581035733604068
10
-65.111429944285518
20
-41.644029271939345
10
-65.28058040363986
20
-44.062993538335235
10
-63.270271127771395
20
-45.418964266395875
10
-61.090811392548616
20
-44.355970728060555
0
ENDSEC
0
SECTION
2
OBJECTS
0
DICTIONARY
5
C
100
AcDbDictionary
3
ACAD_GROUP
350
D
3
ACAD_MLINESTYLE
350
17
0
DICTIONARY
5
D
100
AcDbDictionary
0
DICTIONARY
5
1A
330
C
100
AcDbDictionary
0
DICTIONARY
5
17
100
AcDbDictionary
0
ENDSEC
0
EOF
