0
SECTION
2
HEADER
9
$INSUNITS
70
4
9
$ACADVER
1
AC1014
9
$HANDSEED
5
FFFF
0
ENDSEC
0
SECTION
2
TABLES
0
TABLE
2
VPORT
5
8
100
AcDbSymbolTable
0
ENDTAB
0
TABLE
2
LTYPE
5
5
100
AcDbSymbolTable
0
LTYPE
5
14
100
AcDbSymbolTableRecord
100
AcDbLinetypeTableRecord
2
BYBLOCK
70
0
0
LTYPE
5
15
100
AcDbSymbolTableRecord
100
AcDbLinetypeTableRecord
2
BYLAYER
70
0
0
ENDTAB
0
TABLE
2
LAYER
5
2
100
AcDbSymbolTable
70
2
0
LAYER
5
50
100
AcDbSymbolTableRecord
100
AcDbLayerTableRecord
2
0
70
0
6
CONTINUOUS
0
ENDTAB
0
TABLE
2
STYLE
5
3
100
AcDbSymbolTable
70
1
0
STYLE
5
11
100
AcDbSymbolTableRecord
100
AcDbTextStyleTableRecord
2
STANDARD
70
0
0
ENDTAB
0
TABLE
2
VIEW
5
6
100
AcDbSymbolTable
70
0
0
ENDTAB
0
TABLE
2
UCS
5
7
100
AcDbSymbolTable
70
0
0
ENDTAB
0
TABLE
2
APPID
5
9
100
AcDbSymbolTable
70
2
0
APPID
5
12
100
AcDbSymbolTableRecord
100
AcDbRegAppTableRecord
2
ACAD
70
0
0
ENDTAB
0
TABLE
2
DIMSTYLE
5
A
100
AcDbSymbolTable
70
1
0
ENDTAB
0
TABLE
2
BLOCK_RECORD
5
1
100
AcDbSymbolTable
70
1
0
BLOCK_RECORD
5
1F
100
AcDbSymbolTableRecord
100
AcDbBlockTableRecord
2
*MODEL_SPACE
0
BLOCK_RECORD
5
1B
100
AcDbSymbolTableRecord
100
AcDbBlockTableRecord
2
*PAPER_SPACE
0
ENDTAB
0
ENDSEC
0
SECTION
2
BLOCKS
0
BLOCK
5
20
100
AcDbEntity
100
AcDbBlockBegin
2
*MODEL_SPACE
0
ENDBLK
5
21
100
AcDbEntity
100
AcDbBlockEnd
0
BLOCK
5
1C
100
AcDbEntity
100
AcDbBlockBegin
2
*PAPER_SPACE
0
ENDBLK
5
1D
100
AcDbEntity
100
AcDbBlockEnd
0
ENDSEC
0
SECTION
2
ENTITIES
0
CIRCLE
5
100
100
AcDbEntity
8
0
100
AcDbCircle
10
68.911041218469464
20
54.038293383249972
30
0
40
3.0000000000000071
210
0
220
-0
230
1
0
CIRCLE
5
101
100
AcDbEntity
8
0
100
AcDbCircle
10
80.158593935662523
20
5.3197901439879924
30
0
40
2.9999999999999893
210
0
220
-0
230
1
0
CIRCLE
5
102
100
AcDbEntity
8
0
100
AcDbCircle
10
-53.101120668417082
20
-54.000000000749999
30
0
40
2.9999999999999982
210
0
220
-0
230
1
0
CIRCLE
5
103
100
AcDbEntity
8
0
100
AcDbCircle
10
-94.722367129763612
20
43.337890113838931
30
0
40
2.9999999999999893
210
0
220
-0
230
1
0
SPLINE
5
104
100
AcDbEntity
8
0
100
AcDbSpline
70
0
71
3
72
16
73
12
74
0
42
0.000000001
43
0.0000000001
44
0.0000000001
40
-0.86635582002533484
40
-0.86635582002533484
40
-0.86635582002533484
40
-0.86635582002533484
40
-0.71875817030145439
40
-0.71875817030145439
40
-0.59026282843711309
40
-0.59026282843711309
40
-0.45089860510760504
40
-0.45089860510760504
40
-0.28171572715219256
40
-0.28171572715219256
40
0
40
0
40
0
40
0
10
-63.101120668417067
20
-48.999999999999986
30
0
10
-63.594192026295204
20
-48.999999999999986
30
0
10
-64.095374188186838
20
-48.956811715497764
30
0
10
-64.994198904394537
20
-48.748250905876262
30
0
10
-65.397600429673503
20
-48.599268476043477
30
0
10
-66.169004377956014
20
-48.144822470323192
30
0
10
-66.509126338411335
20
-47.840167897371735
30
0
10
-67.125023652008821
20
-47.012961453354606
30
0
10
-67.347539180741592
20
-46.489765990776988
30
0
10
-67.727205395304807
20
-45.031793685300968
30
0
10
-67.750522761440493
20
-44.021137111517952
30
0
10
-67.685017775692486
20
-43.084372172185176
30
0
0
LINE
5
105
100
AcDbEntity
8
0
100
AcDbLine
10
-63.101120668417067
20
-48.999999999999986
30
0
11
-61.601120668417082
21
-48.999999999999979
31
0
0
ARC
5
106
100
AcDbEntity
8
0
100
AcDbCircle
10
-61.601120668417082
20
-50.999999999999979
30
0
40
2.0000000000000018
210
0
220
-0
230
1
100
AcDbArc
50
0
51
90
0
LINE
5
107
100
AcDbEntity
8
0
100
AcDbLine
10
-59.601120668417082
20
-50.999999999999972
30
0
11
-59.601120668417067
21
-54.000000000749992
31
0
0
ARC
5
108
100
AcDbEntity
8
0
100
AcDbCircle
10
-53.101120668417082
20
-54.000000000749999
30
0
40
6.4999999999999858
210
0
220
0
230
1
100
AcDbArc
50
180
51
269.99999269759491
0
LINE
5
109
100
AcDbEntity
8
0
100
AcDbLine
10
-53.101121496848663
20
-60.500000000749942
30
0
11
-53.101055668989005
21
-60.499999999424993
31
0
0
ARC
5
110
100
AcDbEntity
8
0
100
AcDbCircle
10
-53.101120668417053
20
-53.999999999750003
30
0
40
6.4999999999999867
210
0
220
0
230
1
100
AcDbArc
50
-89.999427047246442
51
0
0
LINE
5
111
100
AcDbEntity
8
0
100
AcDbLine
10
-46.60112066841706
20
-53.999999999749988
30
0
11
-46.60112066841706
21
-50.999999999999972
31
0
0
ARC
5
112
100
AcDbEntity
8
0
100
AcDbCircle
10
-44.60112066841706
20
-50.999999999999979
30
0
40
2.0000000000000018
210
0
220
0
230
1
100
AcDbArc
50
90.000000000000199
51
180
0
LINE
5
113
100
AcDbEntity
8
0
100
AcDbLine
10
-44.601120668417067
20
-48.999999999999979
30
0
11
29.344199444973434
21
-48.999999999999979
31
0
0
SPLINE
5
114
100
AcDbEntity
8
0
100
AcDbSpline
70
0
71
3
72
16
73
12
74
0
42
0.000000001
43
0.0000000001
44
0.0000000001
40
-0.95270832419958429
40
-0.95270832419958429
40
-0.95270832419958429
40
-0.95270832419958429
40
-0.76043057735837427
40
-0.76043057735837427
40
-0.5975916141687585
40
-0.5975916141687585
40
-0.44461719525774085
40
-0.44461719525774085
40
-0.27139154084168199
40
-0.27139154084168199
40
0
40
0
40
0
40
0
10
34.925660602508685
20
-43.014615698441034
30
0
10
34.970411049903952
20
-43.654576911479211
30
0
10
34.96508694383143
20
-44.314123832575234
30
0
10
34.793624938911968
20
-45.487171984483403
30
0
10
34.650840713658084
20
-46.01742067502731
30
0
10
34.193678874334779
20
-46.967798067576972
30
0
10
33.898895315159919
20
-47.374694214653033
30
0
10
33.094640644491122
20
-48.109383039929384
30
0
10
32.59367294723419
20
-48.390534422034783
30
0
10
31.198521664247064
20
-48.897952843698995
30
0
10
30.248837914445712
20
-48.999999999999979
30
0
10
29.344199444973441
20
-48.999999999999979
30
0
0
LINE
5
115
100
AcDbEntity
8
0
100
AcDbLine
10
34.925660602508685
20
-43.014615698441034
30
0
11
33.448136346768322
21
-21.885034430901371
31
0
0
LINE
5
116
100
AcDbEntity
8
0
100
AcDbLine
10
33.448136346768322
20
-21.885034430901371
30
0
11
73.039740092526756
21
-12.744592490358242
31
0
0
ARC
5
117
100
AcDbEntity
8
0
100
AcDbCircle
10
71.6900337664636
20
-6.898372101646828
30
0
40
5.9999999999999956
210
0
220
0
230
1
100
AcDbArc
50
-77.000000000000298
51
12.999999999999854
0
LINE
5
118
100
AcDbEntity
8
0
100
AcDbLine
10
77.536254155175016
20
-5.5486657755836513
30
0
11
77.198827573659216
21
-4.0871106784058053
31
0
0
ARC
5
119
100
AcDbEntity
8
0
100
AcDbCircle
10
79.147567703229683
20
-3.6372085697180889
30
0
40
2.0000000000000004
210
0
220
0
230
1
100
AcDbArc
50
103.00000000000023
51
192.99999999999963
0
LINE
5
120
100
AcDbEntity
8
0
100
AcDbLine
10
78.697665594541945
20
-1.6884684401476191
30
0
11
81.620775788897646
21
-1.0136152771160223
31
0
0
ARC
5
121
100
AcDbEntity
8
0
100
AcDbCircle
10
80.158593935662523
20
5.3197901439879924
30
0
40
6.4999999999999858
210
-0
220
0
230
1
100
AcDbArc
50
-76.999999999999986
51
102.99999852122073
0
LINE
5
122
100
AcDbEntity
8
0
100
AcDbLine
10
78.69641224588986
20
11.653195602830275
30
0
11
75.773301888071757
21
10.97834240206045
31
0
0
ARC
5
123
100
AcDbEntity
8
0
100
AcDbCircle
10
75.323399779384033
20
12.927082531630925
30
0
40
1.9999999999999969
210
0
220
0
230
1
100
AcDbArc
50
193.00000000000031
51
282.99999999999977
0
LINE
5
124
100
AcDbEntity
8
0
100
AcDbLine
10
73.374659649813566
20
12.477180422943185
30
0
11
65.9512748564661
21
44.631392560856156
31
0
0
ARC
5
125
100
AcDbEntity
8
0
100
AcDbCircle
10
67.900014986036567
20
45.081294669543894
30
0
40
1.999999999999996
210
0
220
0
230
1
100
AcDbArc
50
102.99999999999984
51
193.00000000000017
0
LINE
5
126
100
AcDbEntity
8
0
100
AcDbLine
10
67.450112877348843
20
47.030034799114361
30
0
11
70.373223071704572
21
47.704887962145975
31
0
0
ARC
5
127
100
AcDbEntity
8
0
100
AcDbCircle
10
68.911041218469464
20
54.038293383249972
30
0
40
6.4999999999999671
210
-0
220
0
230
1
100
AcDbArc
50
-77.000000000000043
51
103.00000000000003
0
LINE
5
128
100
AcDbEntity
8
0
100
AcDbLine
10
67.448859365234341
20
60.37169880435399
30
0
11
64.52574917087864
21
59.696845641322412
31
0
0
ARC
5
129
100
AcDbEntity
8
0
100
AcDbCircle
10
64.075847062190917
20
61.645585770892886
30
0
40
2.0000000000000009
210
0
220
0
230
1
100
AcDbArc
50
192.99999999999957
51
282.99999999999977
0
LINE
5
130
100
AcDbEntity
8
0
100
AcDbLine
10
62.127106932620435
20
61.19568366220517
30
0
11
61.78968035110465
21
62.65723875938307
31
0
0
ARC
5
131
100
AcDbEntity
8
0
100
AcDbCircle
10
55.943459962393256
20
61.307532433319906
30
0
40
5.9999999999999796
210
0
220
-0
230
1
100
AcDbArc
50
12.999999999999799
51
102.99999999999994
0
LINE
5
132
100
AcDbEntity
8
0
100
AcDbLine
10
54.593753636330078
20
67.153752822031294
30
0
11
15.131766012528161
21
58.043235121104992
31
0
0
SPLINE
5
133
100
AcDbEntity
8
0
100
AcDbSpline
70
0
71
3
72
10
73
6
74
0
42
0.000000001
43
0.0000000001
44
0.0000000001
40
-1.2940374105598333
40
-1.2940374105598333
40
-1.2940374105598333
40
-1.2940374105598333
40
-0.90581857175681202
40
-0.90581857175681202
40
0
40
0
40
0
40
0
10
-2.5901532915217782
20
54.298949726121691
30
0
10
-0.86791701143735689
20
54.564258848565537
30
0
10
1.0071818612814392
20
54.928578323470624
30
0
10
6.4575583387510775
20
56.049066498408074
30
0
10
12.189757677706975
20
57.36401897856851
30
0
10
15.131766012528161
20
58.043235121104992
30
0
0
SPLINE
5
134
100
AcDbEntity
8
0
100
AcDbSpline
70
0
71
3
72
10
73
6
74
0
42
0.000000001
43
0.0000000001
44
0.0000000001
40
-0.012766436248477449
40
-0.012766436248477449
40
-0.012766436248477449
40
-0.012766436248477449
40
-0.0064012114232048804
40
-0.0064012114232048804
40
0
40
0
40
0
40
0
10
-2.7163488428578679
20
54.279639351816371
30
0
10
-2.6953723030217951
20
54.282827402864044
30
0
10
-2.6743973507822636
20
54.286026150806975
30
0
10
-2.6323321817174787
20
54.292462904541168
30
0
10
-2.6112418980787973
20
54.295701043135523
30
0
10
-2.590153288023338
20
54.298949726660624
30
0
0
SPLINE
5
135
100
AcDbEntity
8
0
100
AcDbSpline
70
0
71
3
72
10
73
6
74
0
42
0.000000001
43
0.0000000001
44
0.0000000001
40
-1.5470133459777424
40
-1.5470133459777424
40
-1.5470133459777424
40
-1.5470133459777424
40
-0.67186889294978946
40
-0.67186889294978946
40
0
40
0
40
0
40
0
10
-23.277998006539956
20
54.381083519035236
30
0
10
-15.960730381291626
20
53.869410321864144
30
0
10
-12.082999734021708
20
53.691608308326842
30
0
10
-6.8675731457019582
20
53.770596157453966
30
0
10
-4.9304862335558273
20
53.94313089602413
30
0
10
-2.716348842857879
20
54.279639351816371
30
0
0
LINE
5
136
100
AcDbEntity
8
0
100
AcDbLine
10
-23.277998006539956
20
54.381083519035236
30
0
11
-82.633058996999509
21
58.53159370681081
31
0
0
ARC
5
137
100
AcDbEntity
8
0
100
AcDbCircle
10
-83.051597839464279
20
52.546209405251894
30
0
40
5.9999999999999742
210
0
220
-0
230
1
100
AcDbArc
50
85.999999999999815
51
176.00000000000031
0
LINE
5
138
100
AcDbEntity
8
0
100
AcDbLine
10
-89.036982141023202
20
52.964748247716614
30
0
11
-89.141616851639441
21
51.468402172326819
31
0
0
ARC
5
139
100
AcDbEntity
8
0
100
AcDbCircle
10
-91.136744952159063
20
51.607915119815083
30
0
40
1.9999999999999969
210
0
220
0
230
1
100
AcDbArc
50
265.99999999999983
51
355.9999999999996
0
LINE
5
140
100
AcDbEntity
8
0
100
AcDbLine
10
-91.27625789964732
20
49.612787019295439
30
0
11
-94.268950050426781
21
49.822056440527803
31
0
0
ARC
5
141
100
AcDbEntity
8
0
100
AcDbCircle
10
-94.722367129763612
20
43.337890113838931
30
0
40
6.500000000000016
210
0
220
-0
230
1
100
AcDbArc
50
85.999999999999872
51
266.00000000000017
0
LINE
5
142
100
AcDbEntity
8
0
100
AcDbLine
10
-95.175784209100414
20
36.853723787150052
30
0
11
-92.183092058320995
21
36.644454365917703
31
0
0
ARC
5
143
100
AcDbEntity
8
0
100
AcDbCircle
10
-92.322605005809237
20
34.649326265398066
30
0
40
2.0000000000000071
210
-0
220
0
230
1
100
AcDbArc
50
-4.0000000000003109
51
86.000000000000213
0
LINE
5
144
100
AcDbEntity
8
0
100
AcDbLine
10
-90.327476905289586
20
34.509813317909803
30
0
11
-92.385292880737325
21
5.0816738353019364
31
0
0
ARC
5
145
100
AcDbEntity
8
0
100
AcDbCircle
10
-86.399908579178373
20
4.6631349928371861
30
0
40
5.9999999999999982
210
0
220
0
230
1
100
AcDbArc
50
176.00000000000006
51
235.99999950707263
0
LINE
5
146
100
AcDbEntity
8
0
100
AcDbLine
10
-89.755066042797154
20
-0.31109041362798406
30
0
11
-87.3347847993941
21
34.300543899749265
31
0
0
LINE
5
147
100
AcDbEntity
8
0
100
AcDbLine
10
-87.3347847993941
20
34.300543899749265
30
0
11
-80.351836402976389
21
33.812248580484024
31
0
0
LINE
5
148
100
AcDbEntity
8
0
100
AcDbLine
10
-80.351836402976389
20
33.812248580484024
30
0
11
-79.514758717761836
21
45.783017183586459
31
0
0
ARC
5
149
100
AcDbEntity
8
0
100
AcDbCircle
10
-77.020848592112245
20
45.608625999226142
30
0
40
2.5000000000000377
210
0
220
-0
230
1
100
AcDbArc
50
85.999999999999957
51
176.00000000000006
0
LINE
5
150
100
AcDbEntity
8
0
100
AcDbLine
10
-76.846457407751927
20
48.102536124875741
30
0
11
-21.353844354639484
21
44.222114607656636
31
0
0
LINE
5
151
100
AcDbEntity
8
0
100
AcDbLine
10
-21.353844354639484
20
44.222114607656636
30
0
11
-21.353844354639484
21
44.222187175842976
31
0
0
ARC
5
152
100
AcDbEntity
8
0
100
AcDbCircle
10
-13.573599562762023
20
157.3214793201538
30
0
40
113.36658278595905
210
0
220
0
230
1
100
AcDbArc
50
266.06474983327291
51
285.85639657865806
0
LINE
5
153
100
AcDbEntity
8
0
100
AcDbLine
10
17.401238043682099
20
48.2685493832643
30
0
11
18.850633248560953
21
48.60316863244077
31
0
0
LINE
5
154
100
AcDbEntity
8
0
100
AcDbLine
10
18.850633248560953
20
48.60316863244077
30
0
11
48.073933596701508
21
55.385492685084159
31
0
0
LINE
5
155
100
AcDbEntity
8
0
100
AcDbLine
10
48.073933596701508
20
55.385492685084159
30
0
11
50.509858758664791
21
55.947870320943871
31
0
0
ARC
5
156
100
AcDbEntity
8
0
100
AcDbCircle
10
51.072236394524431
20
53.511945158980765
30
0
40
2.5000000000000115
210
0
220
-0
230
1
100
AcDbArc
50
12.999999999999741
51
102.99999999999942
0
LINE
5
157
100
AcDbEntity
8
0
100
AcDbLine
10
53.508161556487536
20
54.07432279484042
30
0
11
66.3303716540875
21
-1.464770897918255
31
0
0
ARC
5
158
100
AcDbEntity
8
0
100
AcDbCircle
10
63.894446492124423
20
-2.0271485337779094
30
0
40
2.4999999999999907
210
-0
220
0
230
1
100
AcDbArc
50
-77.000000000000497
51
12.999999999999854
0
LINE
5
159
100
AcDbEntity
8
0
100
AcDbLine
10
64.456824127984063
20
-4.4630736957409942
30
0
11
22.876719275061088
21
-14.062597289946366
31
0
0
LINE
5
160
100
AcDbEntity
8
0
100
AcDbLine
10
22.876719275061088
20
-14.062597289946366
30
0
11
24.433500695314436
21
-36.32560881563964
31
0
0
ARC
5
161
100
AcDbEntity
8
0
100
AcDbCircle
10
21.939590569664894
20
-36.499999999999943
30
0
40
2.4999999999999867
210
0
220
0
230
1
100
AcDbArc
50
-90.000000000000142
51
3.9999999999996767
0
LINE
5
162
100
AcDbEntity
8
0
100
AcDbLine
10
21.939590569664887
20
-38.999999999999929
30
0
11
-59.706279385433206
21
-38.999999999999979
31
0
0
ARC
5
163
100
AcDbEntity
8
0
100
AcDbCircle
10
-59.706279385433206
20
-36.499999999999979
30
0
40
2.5000000000000107
210
0
220
0
230
1
100
AcDbArc
50
176.00000000000031
51
270
0
LINE
5
164
100
AcDbEntity
8
0
100
AcDbLine
10
-62.200189511082783
20
-36.325608815639676
30
0
11
-59.291288037806751
21
5.273620327338433
31
0
0
ARC
5
165
100
AcDbEntity
8
0
100
AcDbCircle
10
-60.787634113196475
20
5.3782550379545757
30
0
40
1.4999999999999789
210
0
220
0
230
1
100
AcDbArc
50
-3.9999999999983262
51
86.000000000000483
0
LINE
5
166
100
AcDbEntity
8
0
100
AcDbLine
10
-60.6829994025803
20
6.8746011133443012
30
0
11
-65.172037628749464
21
7.1885052451928733
31
0
0
LINE
5
167
100
AcDbEntity
8
0
100
AcDbLine
10
-65.172037628749464
20
7.1885052451928733
30
0
11
-65.869602366190733
21
-2.7871352574053976
31
0
0
LINE
5
168
100
AcDbEntity
8
0
100
AcDbLine
10
-65.869602366190733
20
-2.7871352574053976
30
0
11
-64.872038315930894
21
-2.8568917311495223
31
0
0
LINE
5
169
100
AcDbEntity
8
0
100
AcDbLine
10
-64.872038315930894
20
-2.8568917311495223
30
0
11
-67.685017775692486
21
-43.084372172185184
31
0
0
LWPOLYLINE
5
170
100
AcDbEntity
8
0
100
AcDbPolyline
90
6
70
1
43
0.0
10
27.16473970975062
20
-41.937006461664687
10
27.333890169104965
20
-44.355970728060605
10
29.513349904327765
20
-45.418964266395882
10
31.523659180196219
20
-44.062993538335242
10
31.354508720841881
20
-41.64402927193936
10
29.175048985619085
20
-40.581035733604082
0
LWPOLYLINE
5
171
100
AcDbEntity
8
0
100
AcDbPolyline
90
6
70
1
43
0.0
10
53.624544167606388
20
62.016496139505335
10
54.17002148508206
20
59.653774298890248
10
56.488937279868885
20
58.944810592704798
10
58.262375757180045
20
60.59856872713447
10
57.716898439704394
20
62.961290567749558
10
55.397982644917569
20
63.670254273935008
0
LWPOLYLINE
5
172
100
AcDbEntity
8
0
100
AcDbPolyline
90
6
70
1
43
0.0
10
-80.872138104241486
20
53.609202943587107
10
-82.882447380109951
20
54.965173671647747
10
-85.061907115332758
20
53.90218013331247
10
-85.231057574687128
20
51.483215866916552
10
-83.220748298818634
20
50.127245138855947
10
-81.041288563595828
20
51.190238677191225
0
LWPOLYLINE
5
173
100
AcDbEntity
8
0
100
AcDbPolyline
90
6
70
1
43
0.0
10
-17.400000000000048
20
-41.787564434701771
10
-19.500000000000036
20
-40.575128869403578
10
-21.600000000000044
20
-41.787564434701807
10
-21.600000000000044
20
-44.212435565298229
10
-19.500000000000036
20
-45.424871130596422
10
-17.400000000000048
20
-44.212435565298229
0
LWPOLYLINE
5
174
100
AcDbEntity
8
0
100
AcDbPolyline
90
6
70
1
43
0.0
10
-5.472777753762621
20
46.7207813616129
10
-3.2734697093572773
20
45.699486043982425
10
-1.2893479973205224
20
47.093495022369687
10
-1.5045343296891112
20
49.508799318387425
10
-3.7038423740944548
20
50.5300946360179
10
-5.6879640861312097
20
49.136085657630638
0
LWPOLYLINE
5
175
100
AcDbEntity
8
0
100
AcDbPolyline
90
6
70
1
43
0.0
10
69.371117971676725
20
-6.1894083954614043
10
69.916595289152383
20
-8.5521302360765095
10
72.23551108393923
20
-9.261093942261942
10
74.008949561250404
20
-7.6073358078322872
10
73.463472243774731
20
-5.2446139672171821
10
71.144556448987913
20
-4.5356502610317495
0
LWPOLYLINE
5
176
100
AcDbEntity
8
0
100
AcDbPolyline
90
6
70
1
43
0.0
10
-60.921660933194282
20
-41.937006461664687
10
-62.931970209062726
20
-40.581035733604082
10
-65.111429944285518
20
-41.64402927193936
10
-65.280580403639846
20
-44.062993538335242
10
-63.270271127771387
20
-45.418964266395882
10
-61.090811392548623
20
-44.355970728060569
0
ENDSEC
0
SECTION
2
OBJECTS
0
DICTIONARY
5
C
100
AcDbDictionary
3
ACAD_GROUP
350
D
3
ACAD_MLINESTYLE
350
17
0
DICTIONARY
5
D
100
AcDbDictionary
0
DICTIONARY
5
1A
330
C
100
AcDbDictionary
0
DICTIONARY
5
17
100
AcDbDictionary
0
ENDSEC
0
EOF
