0
SECTION
2
HEADER
9
$INSUNITS
70
4
9
$ACADVER
1
AC1014
9
$HANDSEED
5
FFFF
0
ENDSEC
0
SECTION
2
TABLES
0
TABLE
2
VPORT
5
8
100
AcDbSymbolTable
0
ENDTAB
0
TABLE
2
LTYPE
5
5
100
AcDbSymbolTable
0
LTYPE
5
14
100
AcDbSymbolTableRecord
100
AcDbLinetypeTableRecord
2
BYBLOCK
70
0
0
LTYPE
5
15
100
AcDbSymbolTableRecord
100
AcDbLinetypeTableRecord
2
BYLAYER
70
0
0
ENDTAB
0
TABLE
2
LAYER
5
2
100
AcDbSymbolTable
70
2
0
LAYER
5
50
100
AcDbSymbolTableRecord
100
AcDbLayerTableRecord
2
0
70
0
6
CONTINUOUS
0
ENDTAB
0
TABLE
2
STYLE
5
3
100
AcDbSymbolTable
70
1
0
STYLE
5
11
100
AcDbSymbolTableRecord
100
AcDbTextStyleTableRecord
2
STANDARD
70
0
0
ENDTAB
0
TABLE
2
VIEW
5
6
100
AcDbSymbolTable
70
0
0
ENDTAB
0
TABLE
2
UCS
5
7
100
AcDbSymbolTable
70
0
0
ENDTAB
0
TABLE
2
APPID
5
9
100
AcDbSymbolTable
70
2
0
APPID
5
12
100
AcDbSymbolTableRecord
100
AcDbRegAppTableRecord
2
ACAD
70
0
0
ENDTAB
0
TABLE
2
DIMSTYLE
5
A
100
AcDbSymbolTable
70
1
0
ENDTAB
0
TABLE
2
BLOCK_RECORD
5
1
100
AcDbSymbolTable
70
1
0
BLOCK_RECORD
5
1F
100
AcDbSymbolTableRecord
100
AcDbBlockTableRecord
2
*MODEL_SPACE
0
BLOCK_RECORD
5
1B
100
AcDbSymbolTableRecord
100
AcDbBlockTableRecord
2
*PAPER_SPACE
0
ENDTAB
0
ENDSEC
0
SECTION
2
BLOCKS
0
BLOCK
5
20
100
AcDbEntity
100
AcDbBlockBegin
2
*MODEL_SPACE
0
ENDBLK
5
21
100
AcDbEntity
100
AcDbBlockEnd
0
BLOCK
5
1C
100
AcDbEntity
100
AcDbBlockBegin
2
*PAPER_SPACE
0
ENDBLK
5
1D
100
AcDbEntity
100
AcDbBlockEnd
0
ENDSEC
0
SECTION
2
ENTITIES
0
CIRCLE
5
100
100
AcDbEntity
8
0
100
AcDbCircle
10
55.94345996239322
20
61.307532433319885
30
0
40
1.1000000000000032
210
0
220
0
230
1
0
CIRCLE
5
101
100
AcDbEntity
8
0
100
AcDbCircle
10
-63.101120668417067
20
-42.999999999999972
30
0
40
1.1000000000000032
210
0
220
0
230
1
0
CIRCLE
5
102
100
AcDbEntity
8
0
100
AcDbCircle
10
71.690033766463571
20
-6.8983721016468538
30
0
40
1.1000000000000032
210
0
220
0
230
1
0
CIRCLE
5
103
100
AcDbEntity
8
0
100
AcDbCircle
10
-3.4886560417258696
20
48.114790340000162
30
0
40
1.1000000000000032
210
0
220
0
230
1
0
CIRCLE
5
104
100
AcDbEntity
8
0
100
AcDbCircle
10
-19.50000000000005
20
-43
30
0
40
1.1000000000000032
210
0
220
0
230
1
0
CIRCLE
5
105
100
AcDbEntity
8
0
100
AcDbCircle
10
29.344199444973423
20
-42.999999999999972
30
0
40
1.1000000000000076
210
0
220
0
230
1
0
CIRCLE
5
106
100
AcDbEntity
8
0
100
AcDbCircle
10
-83.051597839464293
20
52.546209405251822
30
0
40
1.0999999999999943
210
0
220
0
230
1
0
ARC
5
107
100
AcDbEntity
8
0
100
AcDbCircle
10
-46.776565349147631
20
-44.999999999999972
30
0
40
3.9999999999999964
210
0
220
0
230
1
100
AcDbArc
50
234.90319877921002
51
270
0
LINE
5
108
100
AcDbEntity
8
0
100
AcDbLine
10
-46.776565349147631
20
-48.999999999999979
30
0
11
29.344199444973427
21
-48.999999999999979
31
0
0
SPLINE
5
109
100
AcDbEntity
8
0
100
AcDbSpline
70
0
71
3
72
16
73
12
74
0
42
0.000000001
43
0.0000000001
44
0.0000000001
40
0
40
0
40
0
40
0
40
0.27139154084166528
40
0.27139154084166528
40
0.44461719525771248
40
0.44461719525771248
40
0.59759161416871676
40
0.59759161416871676
40
0.76043057735830644
40
0.76043057735830644
40
0.95270832419949403
40
0.95270832419949403
40
0.95270832419949403
40
0.95270832419949403
10
29.344199444973423
20
-48.999999999999972
30
0
10
30.248837914445641
20
-48.999999999999972
30
0
10
31.198521664247032
20
-48.897952843698995
30
0
10
32.593672947234175
20
-48.390534422034783
30
0
10
33.094640644491101
20
-48.109383039929384
30
0
10
33.898895315159891
20
-47.374694214653047
30
0
10
34.193678874334751
20
-46.967798067577
30
0
10
34.650840713658077
20
-46.017420675027303
30
0
10
34.793624938911961
20
-45.487171984483396
30
0
10
34.965086943831423
20
-44.314123832575198
30
0
10
34.97041104990393
20
-43.654576911479126
30
0
10
34.925660602508671
20
-43.01461569844102
30
0
0
LINE
5
110
100
AcDbEntity
8
0
100
AcDbLine
10
34.925660602508671
20
-43.01461569844102
30
0
11
33.448136346768294
21
-21.885034430901406
31
0
0
LINE
5
111
100
AcDbEntity
8
0
100
AcDbLine
10
33.448136346768294
20
-21.885034430901406
30
0
11
73.039740092526728
21
-12.74459249035826
31
0
0
ARC
5
112
100
AcDbEntity
8
0
100
AcDbCircle
10
71.690033766463571
20
-6.8983721016468538
30
0
40
5.9999999999999876
210
-0
220
0
230
1
100
AcDbArc
50
-77.000000000000298
51
12.999999999999828
0
LINE
5
113
100
AcDbEntity
8
0
100
AcDbLine
10
77.536254155174987
20
-5.5486657755836797
30
0
11
76.7094589993022
21
-1.9674225049456684
31
0
0
ARC
5
114
100
AcDbEntity
8
0
100
AcDbCircle
10
72.811978740161251
20
-2.8672267223211154
30
0
40
4.0000000000000044
210
0
220
-0
230
1
100
AcDbArc
50
12.999999999999799
51
48.096801227584585
0
ARC
5
115
100
AcDbEntity
8
0
100
AcDbCircle
10
80.158593935662523
20
5.319790143987988
30
0
40
6.9999999999999893
210
0
220
0
230
1
100
AcDbArc
50
157.90319877241512
51
228.09680122758448
0
ARC
5
116
100
AcDbEntity
8
0
100
AcDbCircle
10
69.966547965029562
20
9.4576880321075905
30
0
40
4.0000000000000195
210
-0
220
0
230
1
100
AcDbArc
50
-22.096801227584869
51
12.999999999999684
0
LINE
5
117
100
AcDbEntity
8
0
100
AcDbLine
10
73.864028224170511
20
10.35749224948303
30
0
11
65.461906282109055
21
46.751080734316382
31
0
0
ARC
5
118
100
AcDbEntity
8
0
100
AcDbCircle
10
61.564426022968128
20
45.851276516940935
30
0
40
3.999999999999988
210
0
220
-0
230
1
100
AcDbArc
50
12.999999999999828
51
48.09680122758413
0
ARC
5
119
100
AcDbEntity
8
0
100
AcDbCircle
10
68.911041218469492
20
54.038293383249979
30
0
40
7.0000000000000275
210
0
220
0
230
1
100
AcDbArc
50
157.90319877241566
51
228.09680122758382
0
ARC
5
120
100
AcDbEntity
8
0
100
AcDbCircle
10
58.718995247836475
20
58.17619127136949
30
0
40
3.9999999999999947
210
-0
220
0
230
1
100
AcDbArc
50
-22.096801227584308
51
12.999999999999572
0
LINE
5
121
100
AcDbEntity
8
0
100
AcDbLine
10
62.616475506977423
20
59.075995488744923
30
0
11
61.789680351104622
21
62.657238759383027
31
0
0
ARC
5
122
100
AcDbEntity
8
0
100
AcDbCircle
10
55.94345996239322
20
61.307532433319885
30
0
40
5.9999999999999831
210
0
220
-0
230
1
100
AcDbArc
50
12.999999999999572
51
103
0
LINE
5
123
100
AcDbEntity
8
0
100
AcDbLine
10
54.593753636330035
20
67.153752822031279
30
0
11
15.131766012528125
21
58.043235121104964
31
0
0
SPLINE
5
124
100
AcDbEntity
8
0
100
AcDbSpline
70
0
71
3
72
10
73
6
74
0
42
0.000000001
43
0.0000000001
44
0.0000000001
40
0
40
0
40
0
40
0
40
3.7074409309769192
40
3.7074409309769192
40
7.3346637182346921
40
7.3346637182346921
40
7.3346637182346921
40
7.3346637182346921
10
15.131766012528123
20
58.043235121104971
30
0
10
3.0903678121833988
20
55.26325929996883
30
0
10
-1.6895780156240714
20
54.294328100343961
30
0
10
-9.2231675999919549
20
53.576043365451227
30
0
10
-13.213031994006775
20
53.677272533458968
30
0
10
-23.277998006539995
20
54.381083519035222
30
0
0
LINE
5
125
100
AcDbEntity
8
0
100
AcDbLine
10
-23.277998006539995
20
54.381083519035229
30
0
11
-82.633058996999509
21
58.531593706810774
31
0
0
ARC
5
126
100
AcDbEntity
8
0
100
AcDbCircle
10
-83.051597839464293
20
52.546209405251822
30
0
40
6.0000000000000098
210
0
220
-0
230
1
100
AcDbArc
50
85.999999999999702
51
175.99999999999997
0
LINE
5
127
100
AcDbEntity
8
0
100
AcDbLine
10
-89.03698214102323
20
52.964748247716578
30
0
11
-89.29336820131816
21
49.298256766565814
31
0
0
ARC
5
128
100
AcDbEntity
8
0
100
AcDbCircle
10
-85.303112000278887
20
49.019230871589308
30
0
40
3.9999999999999765
210
0
220
0
230
1
100
AcDbArc
50
175.99999999999997
51
211.0968012275851
0
ARC
5
129
100
AcDbEntity
8
0
100
AcDbCircle
10
-94.722367129763597
20
43.337890113838931
30
0
40
6.9999999999999751
210
0
220
0
230
1
100
AcDbArc
50
-39.096801227584876
51
31.096801227584816
0
ARC
5
130
100
AcDbEntity
8
0
100
AcDbCircle
10
-86.18546935457158
20
36.400932828694309
30
0
40
4.0000000000000044
210
0
220
0
230
1
100
AcDbArc
50
140.9031987724149
51
175.99999999999997
0
LINE
5
131
100
AcDbEntity
8
0
100
AcDbLine
10
-90.175725555610867
20
36.679958723670815
30
0
11
-92.385292880741332
21
5.0816738352449509
31
0
0
ARC
5
132
100
AcDbEntity
8
0
100
AcDbCircle
10
-86.39990857918238
20
4.6631349927802015
30
0
40
5.9999999999999982
210
0
220
0
230
1
100
AcDbArc
50
176.00000000000006
51
265.99999999999994
0
LINE
5
133
100
AcDbEntity
8
0
100
AcDbLine
10
-86.818447421647136
20
-1.3222493087787459
30
0
11
-64.872038315930936
21
-2.8568917311495312
31
0
0
LINE
5
134
100
AcDbEntity
8
0
100
AcDbLine
10
-64.872038315930936
20
-2.8568917311495312
30
0
11
-67.685017775692501
21
-43.084372172185176
31
0
0
SPLINE
5
135
100
AcDbEntity
8
0
100
AcDbSpline
70
0
71
3
72
16
73
12
74
0
42
0.000000001
43
0.0000000001
44
0.0000000001
40
0
40
0
40
0
40
0
40
0.28171572715219256
40
0.28171572715219256
40
0.45089860510760504
40
0.45089860510760504
40
0.59026282843711309
40
0.59026282843711309
40
0.71875817030145439
40
0.71875817030145439
40
0.86635582002533484
40
0.86635582002533484
40
0.86635582002533484
40
0.86635582002533484
10
-67.685017775692486
20
-43.084372172185176
30
0
10
-67.750522761440493
20
-44.021137111517952
30
0
10
-67.727205395304807
20
-45.031793685300968
30
0
10
-67.347539180741592
20
-46.489765990776988
30
0
10
-67.125023652008821
20
-47.012961453354606
30
0
10
-66.509126338411335
20
-47.840167897371735
30
0
10
-66.169004377956014
20
-48.144822470323192
30
0
10
-65.397600429673503
20
-48.599268476043477
30
0
10
-64.994198904394537
20
-48.748250905876262
30
0
10
-64.095374188186838
20
-48.956811715497764
30
0
10
-63.594192026295204
20
-48.999999999999986
30
0
10
-63.101120668417067
20
-48.999999999999986
30
0
0
LINE
5
136
100
AcDbEntity
8
0
100
AcDbLine
10
-63.101120668417067
20
-48.999999999999986
30
0
11
-59.42567598768656
21
-48.999999999999979
31
0
0
ARC
5
137
100
AcDbEntity
8
0
100
AcDbCircle
10
-59.425675987686553
20
-44.999999999999972
30
0
40
4.0000000000000036
210
0
220
0
230
1
100
AcDbArc
50
269.99999999999989
51
305.09680122078987
0
ARC
5
138
100
AcDbEntity
8
0
100
AcDbCircle
10
-53.101120668417082
20
-54.000000000750006
30
0
40
7.0000000000000107
210
0
220
-0
230
1
100
AcDbArc
50
54.903198779210165
51
125.09680122079006
0
LWPOLYLINE
5
139
100
AcDbEntity
8
0
100
AcDbPolyline
90
53
70
1
43
0.0
10
-79.011546575694297
20
45.811492570518254
10
-81.461883390614034
20
10.770043563816616
42
0.34199871311965618
10
-80.100620145774855
20
8.7336343764846802
10
-80.096190028837214
20
8.7969880002885716
42
0.063254223929917405
10
-79.601838120644985
20
8.698756139612609
10
-63.640813316487709
20
7.5826525597066086
42
0.4142135623730992
10
-61.50617226847983
20
9.4382677127379999
10
-60.285433977957638
20
26.895638592284943
10
-57.292741827178105
20
26.686369171052551
10
-61.164226119977073
20
-28.678435618367743
42
0.4142135623730982
10
-59.30861096694565
20
-30.813076666375629
10
-42.350022112528677
20
-31.998936720025771
42
0.41421356237309098
10
-40.494406959497255
20
-34.133577768033618
10
-24.533382155340053
20
-35.2496813479396
42
0.4142135623730957
10
-22.398741107332167
20
-33.394066194908227
10
-20.515316316240781
20
-6.4598368378929827
10
-19.500000000000028
20
-6.5308346710019194
10
-19.500000000000036
20
-36.499999999999979
42
0.41421356237309115
10
-17.500000000000036
20
-38.499999999999986
10
-1.5000000000000391
20
-38.5
42
0.4142135623730997
10
0.49999999999997158
20
-36.499999999999979
10
0.49999999999997158
20
-2.5308346710019158
10
1.5153163162407246
20
-2.4598368378929791
10
3.3987411073321123
20
-29.394066194908241
42
0.41421356237309559
10
5.5333821553400142
20
-31.249681347939628
10
21.49440695949718
20
-30.133577768033621
42
0.41421356237308454
10
23.350022112528567
20
-27.998936720025782
10
20.299994509523408
20
15.618490104310467
10
21.769075627786613
20
15.957654204700605
10
27.842754095070976
20
-10.350337544500638
42
0.41421356237309592
10
30.24139633332917
20
-11.849175565383359
10
45.831317369893007
20
-8.2499586958815847
42
0.41421356237308643
10
47.330155390775744
20
-5.8513164576234278
10
47.105204336431868
20
-4.8769463928381995
10
63.66949543778054
20
-1.0527784689925861
42
0.41421356237309209
10
65.168333458663284
20
1.345863769265625
10
53.020976524094934
20
53.961847267668468
42
0.41421356237310225
10
50.622334285836715
20
55.460685288551218
10
35.032413249272956
20
51.861468419049345
42
0.41421356237309837
10
33.533575228390198
20
49.462826180791133
10
33.758526282734053
20
48.488456116005914
10
17.194235181384929
20
44.664288192160143
42
0.41421356237309931
10
15.695397160502207
20
42.265645953901952
10
19.026857821164462
20
27.835504476116792
10
-0.022243784750326512
20
26.50346153042717
10
-2.3350919254332427
20
39.620275142218816
42
0.41421356237309809
10
-4.6520037867915054
20
41.242594292909381
10
-21.903334552447724
20
38.200719225798174
10
-21.656043802691975
20
41.737141706427195
42
0.41421356237309104
10
-23.511658955723362
20
43.871782754435088
10
-76.881335644623988
20
47.6037540997458
42
0.063254223929929104
10
-77.384547786691641
20
47.575278712813969
10
-77.380117669753986
20
47.638632336617817
42
0.34199871311964586
0
ENDSEC
0
SECTION
2
OBJECTS
0
DICTIONARY
5
C
100
AcDbDictionary
3
ACAD_GROUP
350
D
3
ACAD_MLINESTYLE
350
17
0
DICTIONARY
5
D
100
AcDbDictionary
0
DICTIONARY
5
1A
330
C
100
AcDbDictionary
0
DICTIONARY
5
17
100
AcDbDictionary
0
ENDSEC
0
EOF
