0
SECTION
2
HEADER
9
$INSUNITS
70
4
9
$ACADVER
1
AC1014
9
$HANDSEED
5
FFFF
0
ENDSEC
0
SECTION
2
TABLES
0
TABLE
2
VPORT
5
8
100
AcDbSymbolTable
0
ENDTAB
0
TABLE
2
LTYPE
5
5
100
AcDbSymbolTable
0
LTYPE
5
14
100
AcDbSymbolTableRecord
100
AcDbLinetypeTableRecord
2
BYBLOCK
70
0
0
LTYPE
5
15
100
AcDbSymbolTableRecord
100
AcDbLinetypeTableRecord
2
BYLAYER
70
0
0
ENDTAB
0
TABLE
2
LAYER
5
2
100
AcDbSymbolTable
70
2
0
LAYER
5
50
100
AcDbSymbolTableRecord
100
AcDbLayerTableRecord
2
0
70
0
6
CONTINUOUS
0
ENDTAB
0
TABLE
2
STYLE
5
3
100
AcDbSymbolTable
70
1
0
STYLE
5
11
100
AcDbSymbolTableRecord
100
AcDbTextStyleTableRecord
2
STANDARD
70
0
0
ENDTAB
0
TABLE
2
VIEW
5
6
100
AcDbSymbolTable
70
0
0
ENDTAB
0
TABLE
2
UCS
5
7
100
AcDbSymbolTable
70
0
0
ENDTAB
0
TABLE
2
APPID
5
9
100
AcDbSymbolTable
70
2
0
APPID
5
12
100
AcDbSymbolTableRecord
100
AcDbRegAppTableRecord
2
ACAD
70
0
0
ENDTAB
0
TABLE
2
DIMSTYLE
5
A
100
AcDbSymbolTable
70
1
0
ENDTAB
0
TABLE
2
BLOCK_RECORD
5
1
100
AcDbSymbolTable
70
1
0
BLOCK_RECORD
5
1F
100
AcDbSymbolTableRecord
100
AcDbBlockTableRecord
2
*MODEL_SPACE
0
BLOCK_RECORD
5
1B
100
AcDbSymbolTableRecord
100
AcDbBlockTableRecord
2
*PAPER_SPACE
0
ENDTAB
0
ENDSEC
0
SECTION
2
BLOCKS
0
BLOCK
5
20
100
AcDbEntity
100
AcDbBlockBegin
2
*MODEL_SPACE
0
ENDBLK
5
21
100
AcDbEntity
100
AcDbBlockEnd
0
BLOCK
5
1C
100
AcDbEntity
100
AcDbBlockBegin
2
*PAPER_SPACE
0
ENDBLK
5
1D
100
AcDbEntity
100
AcDbBlockEnd
0
ENDSEC
0
SECTION
2
ENTITIES
0
CIRCLE
5
100
100
AcDbEntity
8
0
100
AcDbCircle
10
230.48895007306294
20
104.86234135828873
30
0
40
1.5000000000000031
210
0
220
-0
230
1
0
CIRCLE
5
101
100
AcDbEntity
8
0
100
AcDbCircle
10
153.96205371006442
20
127.07795108408939
30
0
40
1.5000000000000036
210
0
220
-0
230
1
0
CIRCLE
5
102
100
AcDbEntity
8
0
100
AcDbCircle
10
194.39160766983724
20
19.684585896685689
30
0
40
1.5000000000000036
210
0
220
-0
230
1
0
CIRCLE
5
103
100
AcDbEntity
8
0
100
AcDbCircle
10
291.36554603789892
20
104.34763716943812
30
0
40
1.5000000000000036
210
0
220
-0
230
1
0
CIRCLE
5
104
100
AcDbEntity
8
0
100
AcDbCircle
10
151.90798089944292
20
29.492703961620208
30
0
40
1.5000000000000036
210
0
220
-0
230
1
0
CIRCLE
5
105
100
AcDbEntity
8
0
100
AcDbCircle
10
241.98393344741902
20
8.6970317329568836
30
0
40
1.5000000000000036
210
0
220
-0
230
1
0
CIRCLE
5
106
100
AcDbEntity
8
0
100
AcDbCircle
10
291.36554603789864
20
34.347637169437846
30
0
40
1.5000000000000036
210
0
220
-0
230
1
0
ARC
5
107
100
AcDbEntity
8
0
100
AcDbCircle
10
147.27660613029082
20
112.05144460171516
30
0
40
3.9999999999999658
210
0
220
0
230
1
100
AcDbArc
50
127.90319877241572
51
163.0000000000004
0
LINE
5
108
100
AcDbEntity
8
0
100
AcDbLine
10
143.45138710643869
20
113.22093142060608
30
0
11
134.19038334759483
21
82.92955302620004
31
0
0
ARC
5
109
100
AcDbEntity
8
0
100
AcDbCircle
10
139.928211883373
20
81.175322797863629
30
0
40
5.9999999999999298
210
0
220
0
230
1
100
AcDbArc
50
162.99999999999994
51
252.9999999999992
0
LINE
5
110
100
AcDbEntity
8
0
100
AcDbLine
10
138.1739816550365
20
75.437494262085437
30
0
11
159.2126862862234
21
69.00531675818516
31
0
0
LINE
5
111
100
AcDbEntity
8
0
100
AcDbLine
10
159.2126862862234
20
69.00531675818516
30
0
11
147.42258916896785
21
30.441646730027454
31
0
0
SPLINE
5
112
100
AcDbEntity
8
0
100
AcDbSpline
70
0
71
3
72
16
73
12
74
0
42
0.000000001
43
0.0000000001
44
0.0000000001
40
0
40
0
40
0
40
0
40
0.28171572715219256
40
0.28171572715219256
40
0.45089860510760499
40
0.45089860510760499
40
0.59026282843711297
40
0.59026282843711297
40
0.71875817030145439
40
0.71875817030145439
40
0.86635582002533473
40
0.86635582002533473
40
0.86635582002533473
40
0.86635582002533473
10
147.42258916896785
20
30.441646730027454
30
0
10
147.14803681098545
20
29.54362643101004
30
0
10
146.94340829268569
20
28.553627653640703
30
0
10
146.98537127944545
20
27.047616768634235
30
0
10
147.08449037865773
20
26.487775669070814
30
0
10
147.49852132226707
20
25.543223722561777
30
0
10
147.76139361151473
20
25.169866632968024
30
0
10
148.41079841844916
20
24.553539917441771
30
0
10
148.77034703410004
20
24.317630299198356
30
0
10
149.59921895704275
20
23.912223322034514
30
0
10
150.0778406024603
20
23.757400494730263
30
0
10
150.55827457337972
20
23.646483572908821
30
0
0
LINE
5
113
100
AcDbEntity
8
0
100
AcDbLine
10
150.55827457337972
20
23.646483572908817
30
0
11
154.13951784367111
21
22.819688417116044
31
0
0
ARC
5
114
100
AcDbEntity
8
0
100
AcDbCircle
10
155.03932206104653
20
26.717168676256957
30
0
40
3.9999999999999671
210
0
220
0
230
1
100
AcDbArc
50
257.00000000000051
51
292.09680122985009
0
ARC
5
115
100
AcDbEntity
8
0
100
AcDbCircle
10
159.17721994956901
20
16.525122705787616
30
0
40
6.9999999999999618
210
0
220
-0
230
1
100
AcDbArc
50
41.903198770150532
51
112.09680122984962
0
ARC
5
116
100
AcDbEntity
8
0
100
AcDbCircle
10
167.36423681616853
20
23.871737900965229
30
0
40
4.0000000000000266
210
0
220
0
230
1
100
AcDbArc
50
221.90319877015034
51
256.99999999999972
0
LINE
5
117
100
AcDbEntity
8
0
100
AcDbLine
10
166.46443259879305
20
19.974257641824295
30
0
11
240.63422712135582
21
2.8508113442454963
31
0
0
SPLINE
5
118
100
AcDbEntity
8
0
100
AcDbSpline
70
4
71
2
72
6
73
3
74
0
42
0.000000001
43
0.0000000001
44
0.0000000001
40
-0.92861806151838977
40
-0.92861806151838977
40
-0.92861806151838977
40
0
40
0
40
0
41
1
41
1
41
1
10
240.63422712135582
20
2.8508113442454963
30
0
10
246.48044751006728
20
1.5011050181822938
30
0
10
247.41905430030863
20
7.4272350617531213
30
0
0
LINE
5
119
100
AcDbEntity
8
0
100
AcDbLine
10
247.41905430030857
20
7.4272350617531213
30
0
11
250.73252047949859
21
28.347637169438027
31
0
0
LINE
5
120
100
AcDbEntity
8
0
100
AcDbLine
10
250.73252047949859
20
28.347637169438027
30
0
11
291.3655460378987
21
28.347637169437832
31
0
0
ARC
5
121
100
AcDbEntity
8
0
100
AcDbCircle
10
291.36554603789864
20
34.347637169437846
30
0
40
6.0000000000000142
210
-0
220
0
230
1
100
AcDbArc
50
270.00000000000051
51
360
0
LINE
5
122
100
AcDbEntity
8
0
100
AcDbLine
10
297.36554603789864
20
34.347637169437832
30
0
11
297.3655460378987
21
38.023081849101018
31
0
0
ARC
5
123
100
AcDbEntity
8
0
100
AcDbCircle
10
293.3655460378987
20
38.02308184910104
30
0
40
4.0000000000000213
210
0
220
0
230
1
100
AcDbArc
50
0
51
35.096801227585367
0
ARC
5
124
100
AcDbEntity
8
0
100
AcDbCircle
10
302.36554603789881
20
44.347637169437846
30
0
40
7.0000000000000977
210
0
220
0
230
1
100
AcDbArc
50
144.90319877241544
51
215.09680122758394
0
ARC
5
125
100
AcDbEntity
8
0
100
AcDbCircle
10
293.3655460378987
20
50.672192489774694
30
0
40
4.0000000000000302
210
-0
220
0
230
1
100
AcDbArc
50
324.90319877241524
51
360
0
LINE
5
126
100
AcDbEntity
8
0
100
AcDbLine
10
297.36554603789875
20
50.672192489774666
30
0
11
297.36554603789887
21
88.023081849101303
31
0
0
ARC
5
127
100
AcDbEntity
8
0
100
AcDbCircle
10
293.36554603789892
20
88.023081849101303
30
0
40
3.9999999999999147
210
0
220
-0
230
1
100
AcDbArc
50
0
51
35.09680122758445
0
ARC
5
128
100
AcDbEntity
8
0
100
AcDbCircle
10
302.36554603789904
20
94.34763716943803
30
0
40
7.0000000000000515
210
0
220
0
230
1
100
AcDbArc
50
144.90319877241603
51
215.09680122758394
0
ARC
5
129
100
AcDbEntity
8
0
100
AcDbCircle
10
293.36554603789887
20
100.67219248977483
30
0
40
4.0000000000001137
210
-0
220
0
230
1
100
AcDbArc
50
324.90319877241529
51
360
0
LINE
5
130
100
AcDbEntity
8
0
100
AcDbLine
10
297.36554603789892
20
100.67219248977477
30
0
11
297.36554603789898
21
104.34763716943803
31
0
0
ARC
5
131
100
AcDbEntity
8
0
100
AcDbCircle
10
291.36554603789892
20
104.34763716943812
30
0
40
6.0000000000000497
210
-0
220
0
230
1
100
AcDbArc
50
0
51
89.99999999999946
0
LINE
5
132
100
AcDbEntity
8
0
100
AcDbLine
10
291.36554603789898
20
110.34763716943813
30
0
11
250.86554603789915
21
110.34763716943829
31
0
0
SPLINE
5
133
100
AcDbEntity
8
0
100
AcDbSpline
70
4
71
2
72
6
73
3
74
0
42
0.000000001
43
0.0000000001
44
0.0000000001
40
0
40
0
40
0
40
3.8821274901529192
40
3.8821274901529192
40
3.8821274901529192
41
1
41
3
41
1
10
250.86554603789915
20
110.34763716943829
30
0
10
229.20626650486153
20
110.34763716943837
30
0
10
212.61641691820145
20
115.41966318886467
30
0
0
LINE
5
134
100
AcDbEntity
8
0
100
AcDbLine
10
212.61641691820159
20
115.41966318886467
30
0
11
155.71628393840084
21
132.81577961986758
31
0
0
ARC
5
135
100
AcDbEntity
8
0
100
AcDbCircle
10
153.96205371006442
20
127.07795108408939
30
0
40
5.9999999999999805
210
0
220
-0
230
1
100
AcDbArc
50
73.000000000000028
51
163.00000000000014
0
LINE
5
136
100
AcDbEntity
8
0
100
AcDbLine
10
148.2242251742862
20
128.8321813124258
30
0
11
147.14962914767895
21
125.31733608498479
31
0
0
ARC
5
137
100
AcDbEntity
8
0
100
AcDbCircle
10
150.97484817153099
20
124.14784926609384
30
0
40
3.9999999999998996
210
0
220
0
230
1
100
AcDbArc
50
162.9999999999996
51
198.0968012275849
0
ARC
5
138
100
AcDbEntity
8
0
100
AcDbCircle
10
140.51898434724367
20
120.73099227640911
30
0
40
6.9999999999999529
210
0
220
0
230
1
100
AcDbArc
50
-52.09680122758499
51
18.096801227584692
0
CIRCLE
5
139
100
AcDbEntity
8
0
100
AcDbCircle
10
207.99332184476106
20
125.85352723736861
30
0
40
2.9999999999999898
210
0
220
-0
230
1
0
LWPOLYLINE
5
140
100
AcDbEntity
8
0
100
AcDbPolyline
90
6
70
1
43
0.0
10
291.26911307688817
20
271.89429772458777
10
293.04255155419935
20
273.54805585901755
10
292.49707423672368
20
275.9107776996326
10
290.178158441937
20
276.61974140581799
10
288.40471996462577
20
274.96598327138838
10
288.95019728210139
20
272.60326143077327
0
LWPOLYLINE
5
141
100
AcDbEntity
8
0
100
AcDbPolyline
90
6
70
1
43
0.0
10
269.41997638112514
20
195.48327061165242
10
270.90983262934549
20
197.39646907486488
10
269.99788228183235
20
199.64332166541698
10
267.59607568609874
20
199.97697579275655
10
266.10621943787839
20
198.06377732954411
10
267.01816978539159
20
195.81692473899196
0
LWPOLYLINE
5
142
100
AcDbEntity
8
0
100
AcDbPolyline
90
6
70
1
43
0.0
10
173.21171250326356
20
183.97132760354538
10
174.73773335141595
20
185.85580640974194
10
173.86873725643255
20
188.11961863404491
10
171.47372031329667
20
188.49895205215125
10
169.94769946514427
20
186.61447324595457
10
170.81669556012773
20
184.35066102165166
0
LWPOLYLINE
5
143
100
AcDbEntity
8
0
100
AcDbPolyline
90
6
70
1
43
0.0
10
192.59291131946779
20
278.67381421643944
10
190.81947284215664
20
277.02005608200983
10
191.36495015963231
20
274.65733424139478
10
193.6838659544191
20
273.94837053520934
10
195.45730443173028
20
275.60212866963906
10
194.91182711425455
20
277.96485051025411
0
LWPOLYLINE
5
144
100
AcDbEntity
8
0
100
AcDbPolyline
90
38
70
1
43
0.0
10
283.33816802676199
20
272.33221662204858
10
249.86750156805562
20
282.5652262873445
42
0.41421356237311524
10
246.74581041634121
20
280.90539365924366
10
241.19074802660913
20
262.73560329594596
42
-0.41421356237308177
10
239.31773333558056
20
261.73970371908547
10
199.43905019391696
20
273.93184069166034
42
0.43481237496093467
10
196.27219577014705
20
272.10345643761241
10
195.2135132603571
20
267.51779868793045
10
188.39292280686041
20
269.09245606833747
10
181.41944012220054
20
238.88698405999531
10
188.24003057569726
20
237.31232667958818
10
186.21547108660249
20
228.54299609652099
10
179.39488063310574
20
230.11765347692804
10
172.42139794844601
20
199.9121814685858
10
179.24198840194262
20
198.33752408817872
10
177.90587124092571
20
192.55016484001658
42
0.43481237496094716
10
179.95071024028817
20
189.51856635266904
10
201.99332184476131
20
186.02735965040353
10
201.9933218447612
20
175.85352723736833
10
194.99332184476123
20
175.85352723736835
10
194.99332184476114
20
145.85352723736872
10
201.99332184476108
20
145.85352723736872
10
201.99332184476111
20
143.3535272373687
42
0.4142135623730846
10
204.49332184476108
20
140.85352723736861
10
261.49332184476128
20
140.85352723736824
42
0.41421356237310336
10
263.99332184476134
20
143.35352723736827
10
263.99332184476128
20
145.85352723736847
10
270.99332184476134
20
145.8535272373685
10
270.99332184476117
20
175.8535272373681
10
263.95864054291445
20
175.85352723736847
10
263.9586405429144
20
177.34104748995156
42
-0.086572664964623083
10
268.7339829834105
20
216.01307308197806
10
268.73391227514207
20
216.01308940626808
10
270.0870437140029
20
220.43898291621935
10
276.78302939082067
20
218.39181465220835
10
291.00398591401898
20
264.90646753346027
10
284.30800023720133
20
266.95363579747129
10
284.99800065486272
20
269.21052547033418
42
0.41421356237307794
0
CIRCLE
5
145
100
AcDbEntity
8
0
100
AcDbCircle
10
180.17080738013635
20
269.04185332592328
30
0
40
2.9999999999999987
210
0
220
-0
230
1
0
CIRCLE
5
146
100
AcDbEntity
8
0
100
AcDbCircle
10
257.99332184476123
20
125.8535272373684
30
0
40
3.0000000000000071
210
0
220
-0
230
1
0
CIRCLE
5
147
100
AcDbEntity
8
0
100
AcDbCircle
10
284.37667695173224
20
287.70008892802372
30
0
40
2.9999999999999898
210
0
220
-0
230
1
0
LWPOLYLINE
5
148
100
AcDbEntity
8
0
100
AcDbPolyline
90
6
70
1
43
0.0
10
195.56845071416464
20
136.85352723736867
10
196.78088627946292
20
134.75352723736864
10
199.20575741005939
20
134.75352723736862
10
200.4181929753575
20
136.85352723736861
10
199.20575741005931
20
138.9535272373686
10
196.78088627946283
20
138.95352723736863
0
LWPOLYLINE
5
149
100
AcDbEntity
8
0
100
AcDbPolyline
90
6
70
1
43
0.0
10
181.67651243757928
20
232.05402712811895
10
184.03923427819444
20
231.50854981064325
10
185.69299241262402
20
233.28198828795439
10
184.98402870643861
20
235.60090408274121
10
182.6213068658235
20
236.14638140021691
10
180.96754873139386
20
234.37294292290574
0
LWPOLYLINE
5
150
100
AcDbEntity
8
0
100
AcDbPolyline
90
6
70
1
43
0.0
10
269.20575741005956
20
138.95352723736841
10
266.78088627946318
20
138.95352723736838
10
265.56845071416495
20
136.85352723736838
10
266.78088627946312
20
134.75352723736844
10
269.20575741005956
20
134.75352723736839
10
270.41819297535773
20
136.85352723736833
0
LINE
5
151
100
AcDbEntity
8
0
100
AcDbLine
10
201.49332184476108
20
128.85352723736861
30
0
11
201.49332184476117
21
125.85352723736862
31
0
0
ARC
5
152
100
AcDbEntity
8
0
100
AcDbCircle
10
207.99332184476106
20
125.85352723736861
30
0
40
6.4999999999999147
210
0
220
0
230
1
100
AcDbArc
50
180
51
359.99999879258172
0
LINE
5
153
100
AcDbEntity
8
0
100
AcDbLine
10
214.49332184476106
20
125.85352710039135
30
0
11
214.49332184476103
21
128.85352723736861
31
0
0
ARC
5
154
100
AcDbEntity
8
0
100
AcDbCircle
10
216.49332184476108
20
128.85352723736861
30
0
40
1.9999999999999574
210
0
220
-0
230
1
100
AcDbArc
50
89.99999999999919
51
180
0
LINE
5
155
100
AcDbEntity
8
0
100
AcDbLine
10
216.49332184476111
20
130.85352723736858
30
0
11
249.49332184476131
21
130.8535272373685
31
0
0
ARC
5
156
100
AcDbEntity
8
0
100
AcDbCircle
10
249.49332184476123
20
128.8535272373685
30
0
40
1.9999999999999929
210
0
220
0
230
1
100
AcDbArc
50
0
51
89.999999999997556
0
LINE
5
157
100
AcDbEntity
8
0
100
AcDbLine
10
251.49332184476123
20
128.8535272373685
30
0
11
251.49332184476128
21
125.85352723736838
31
0
0
ARC
5
158
100
AcDbEntity
8
0
100
AcDbCircle
10
257.99332184476123
20
125.8535272373684
30
0
40
6.4999999999999147
210
0
220
0
230
1
100
AcDbArc
50
-180
51
0
0
LINE
5
159
100
AcDbEntity
8
0
100
AcDbLine
10
264.49332184476117
20
125.8535272373684
30
0
11
264.49332184476128
21
128.85352723736841
31
0
0
ARC
5
160
100
AcDbEntity
8
0
100
AcDbCircle
10
266.49332184476128
20
128.85352723736841
30
0
40
1.9999999999999929
210
0
220
-0
230
1
100
AcDbArc
50
90
51
180
0
LINE
5
161
100
AcDbEntity
8
0
100
AcDbLine
10
266.49332184476128
20
130.85352723736841
30
0
11
267.99332184476134
21
130.85352723736841
31
0
0
ARC
5
162
100
AcDbEntity
8
0
100
AcDbCircle
10
267.9933218447614
20
136.85352723736841
30
0
40
5.9999999999999964
210
0
220
0
230
1
100
AcDbArc
50
269.99999999999943
51
360
0
LINE
5
163
100
AcDbEntity
8
0
100
AcDbLine
10
273.99332184476134
20
136.85352723736838
30
0
11
273.99332184476157
21
177.35352723736816
31
0
0
SPLINE
5
164
100
AcDbEntity
8
0
100
AcDbSpline
70
0
71
3
72
10
73
6
74
0
42
0.000000001
43
0.0000000001
44
0.0000000001
40
0
40
0
40
0
40
0
40
3.7074409309769134
40
3.7074409309769134
40
7.3346637182347267
40
7.3346637182347267
40
7.3346637182347267
40
7.3346637182347267
10
273.99332184476157
20
177.35352723736816
30
0
10
273.99332184476168
20
189.71166367395793
30
0
10
274.12447814268256
20
194.58706189481089
30
0
10
275.11929191900833
20
202.08914497463007
30
0
10
276.11545079212084
20
205.95397779463693
30
0
10
279.06534786418786
20
215.60265635706588
30
0
0
LINE
5
165
100
AcDbEntity
8
0
100
AcDbLine
10
279.06534786418786
20
215.60265635706588
30
0
11
296.46146429519081
21
272.50278933686656
31
0
0
ARC
5
166
100
AcDbEntity
8
0
100
AcDbCircle
10
290.72363575941262
20
274.25701956520288
30
0
40
5.9999999999999325
210
-0
220
0
230
1
100
AcDbArc
50
-16.999999999999197
51
72.999999999999773
0
LINE
5
167
100
AcDbEntity
8
0
100
AcDbLine
10
292.47786598774906
20
279.99484810098107
30
0
11
291.04340885380452
21
280.43340565806528
31
0
0
ARC
5
168
100
AcDbEntity
8
0
100
AcDbCircle
10
291.62815226324983
20
282.34601516999135
30
0
40
1.9999999999999618
210
0
220
0
230
1
100
AcDbArc
50
162.99999999999935
51
253.00000000000443
0
LINE
5
169
100
AcDbEntity
8
0
100
AcDbLine
10
289.71554275132382
20
282.93075857943683
30
0
11
290.59265786549196
21
285.79967284732584
31
0
0
ARC
5
170
100
AcDbEntity
8
0
100
AcDbCircle
10
284.37667695173224
20
287.70008892802372
30
0
40
6.5000000000000169
210
-0
220
0
230
1
100
AcDbArc
50
-17.000000000000774
51
162.99999999999969
0
LINE
5
171
100
AcDbEntity
8
0
100
AcDbLine
10
278.16069603797251
20
289.60050500872154
30
0
11
277.28358092380438
21
286.73159074083242
31
0
0
ARC
5
172
100
AcDbEntity
8
0
100
AcDbCircle
10
275.3709714118782
20
287.31633415027795
30
0
40
1.9999999999999956
210
0
220
0
230
1
100
AcDbArc
50
253.00000000000131
51
342.99999999999915
0
LINE
5
173
100
AcDbEntity
8
0
100
AcDbLine
10
274.78622800243278
20
285.40372463835189
30
0
11
246.57523770152318
21
294.02868992767264
31
0
0
ARC
5
174
100
AcDbEntity
8
0
100
AcDbCircle
10
244.82100747318685
20
288.29086139189434
30
0
40
6.0000000000000338
210
0
220
-0
230
1
100
AcDbArc
50
73.000000000001137
51
162.99999999999969
0
LINE
5
175
100
AcDbEntity
8
0
100
AcDbLine
10
239.08317893740869
20
290.04509162023078
30
0
11
232.65100143350838
21
269.00638698904396
31
0
0
LINE
5
176
100
AcDbEntity
8
0
100
AcDbLine
10
232.65100143350838
20
269.00638698904396
30
0
11
194.08733140535065
21
280.79648410629954
31
0
0
SPLINE
5
177
100
AcDbEntity
8
0
100
AcDbSpline
70
0
71
3
72
16
73
12
74
0
42
0.000000001
43
0.0000000001
44
0.0000000001
40
0
40
0
40
0
40
0
40
0.28171572715218263
40
0.28171572715218263
40
0.45089860510760549
40
0.45089860510760549
40
0.5902628284371243
40
0.5902628284371243
40
0.71875817030145261
40
0.71875817030145261
40
0.86635582002528577
40
0.86635582002528577
40
0.86635582002528577
40
0.86635582002528577
10
194.08733140535065
20
280.79648410629954
30
0
10
193.18931110633329
20
281.07103646428186
30
0
10
192.19931232896391
20
281.2756649825817
30
0
10
190.69330144395741
20
281.233701995822
30
0
10
190.13346034439408
20
281.13458289660963
30
0
10
189.18890839788492
20
280.72055195300027
30
0
10
188.81555130829128
20
280.45767966375269
30
0
10
188.19922459276498
20
279.80827485681817
30
0
10
187.96331497452158
20
279.44872624116732
30
0
10
187.55790799735769
20
278.61985431822455
30
0
10
187.40308517005346
20
278.14123267280701
30
0
10
187.292168248232
20
277.66079870188764
30
0
0
LINE
5
178
100
AcDbEntity
8
0
100
AcDbLine
10
187.292168248232
20
277.66079870188759
30
0
11
186.95474166671625
21
276.19924360470981
31
0
0
ARC
5
179
100
AcDbEntity
8
0
100
AcDbCircle
10
185.00600153714572
20
276.6491457133975
30
0
40
1.9999999999999583
210
0
220
0
230
1
100
AcDbArc
50
257.00000000000063
51
347.00000000000131
0
LINE
5
180
100
AcDbEntity
8
0
100
AcDbLine
10
184.55609942845803
20
274.70040558382709
30
0
11
181.63298923337152
21
275.37525874702743
31
0
0
ARC
5
181
100
AcDbEntity
8
0
100
AcDbCircle
10
180.17080738013635
20
269.04185332592328
30
0
40
6.5000000000000799
210
0
220
-0
230
1
100
AcDbArc
50
76.999999999999872
51
166.99999269759473
0
LINE
5
182
100
AcDbEntity
8
0
100
AcDbLine
10
173.83740214538898
20
270.50403598635734
30
0
11
173.83738733863353
21
270.50397184536348
31
0
0
ARC
5
183
100
AcDbEntity
8
0
100
AcDbCircle
10
180.17080738111082
20
269.0418533256983
30
0
40
6.5000000000000782
210
0
220
0
230
1
100
AcDbArc
50
167.00057295275295
51
257.00000000000011
0
LINE
5
184
100
AcDbEntity
8
0
100
AcDbLine
10
178.70862552787571
20
262.70844790459427
30
0
11
181.63173572198784
21
262.03359474161891
31
0
0
ARC
5
185
100
AcDbEntity
8
0
100
AcDbCircle
10
181.18183361330006
20
260.0848546120485
30
0
40
2.0000000000000089
210
0
220
0
230
1
100
AcDbArc
50
-13.000000000000616
51
76.999999999998209
0
LINE
5
186
100
AcDbEntity
8
0
100
AcDbLine
10
183.13057374287052
20
259.63495250336075
30
0
11
166.49649601956872
21
187.58484615391149
31
0
0
SPLINE
5
187
100
AcDbEntity
8
0
100
AcDbSpline
70
0
71
3
72
16
73
12
74
0
42
0.000000001
43
0.0000000001
44
0.0000000001
40
0
40
0
40
0
40
0
40
0.27139154084166528
40
0.27139154084166528
40
0.44461719525771248
40
0.44461719525771248
40
0.59759161416871853
40
0.59759161416871853
40
0.76043057735830855
40
0.76043057735830855
40
0.95270832419947937
40
0.95270832419947937
40
0.95270832419947937
40
0.95270832419947937
10
166.49649601956872
20
187.58484615391149
30
0
10
166.29299664206093
20
186.70339350980467
30
0
10
166.178795975546
20
185.7550944775825
30
0
10
166.35936854385903
20
184.28155652264618
30
0
10
166.52062082256532
20
183.73018329517976
30
0
10
167.05556168471895
20
182.78127259375594
30
0
10
167.38571723746668
20
182.4025126008118
30
0
10
168.20889748125413
20
181.74327939333443
30
0
10
168.69343647019716
20
181.48487471652112
30
0
10
169.79784891518167
20
181.05392885311164
30
0
10
170.4392940281445
20
180.90037542824314
30
0
10
171.0729197370764
20
180.80001897495868
30
0
0
LINE
5
188
100
AcDbEntity
8
0
100
AcDbLine
10
171.0729197370764
20
180.80001897495868
30
0
11
191.99332184476128
21
177.48655279576877
31
0
0
LINE
5
189
100
AcDbEntity
8
0
100
AcDbLine
10
191.99332184476128
20
177.48655279576877
30
0
11
191.99332184476117
21
136.85352723736867
31
0
0
ARC
5
190
100
AcDbEntity
8
0
100
AcDbCircle
10
197.99332184476111
20
136.85352723736858
30
0
40
5.9999999999999432
210
0
220
0
230
1
100
AcDbArc
50
180
51
269.99999999999943
0
LINE
5
191
100
AcDbEntity
8
0
100
AcDbLine
10
197.99332184476106
20
130.85352723736858
30
0
11
199.49332184476117
21
130.85352723736867
31
0
0
ARC
5
192
100
AcDbEntity
8
0
100
AcDbCircle
10
199.49332184476108
20
128.85352723736867
30
0
40
1.9999999999999929
210
-0
220
0
230
1
100
AcDbArc
50
0
51
89.999999999997556
0
CIRCLE
5
193
100
AcDbEntity
8
0
100
AcDbCircle
10
9.6906180452071755
20
267.63809266204282
30
0
40
1.1000000000000032
210
0
220
-0
230
1
0
CIRCLE
5
194
100
AcDbEntity
8
0
100
AcDbCircle
10
70.567214010043017
20
197.12338847319199
30
0
40
1.1000000000000032
210
0
220
-0
230
1
0
CIRCLE
5
195
100
AcDbEntity
8
0
100
AcDbCircle
10
59.0722306356868
20
293.28869809852381
30
0
40
1.1000000000000076
210
0
220
-0
230
1
0
CIRCLE
5
196
100
AcDbEntity
8
0
100
AcDbCircle
10
147.09411037304147
20
174.90777874739138
30
0
40
1.0999999999999945
210
0
220
-0
230
1
0
CIRCLE
5
197
100
AcDbEntity
8
0
100
AcDbCircle
10
9.6906180452069179
20
197.63809266204262
30
0
40
1.1000000000000032
210
0
220
-0
230
1
0
CIRCLE
5
198
100
AcDbEntity
8
0
100
AcDbCircle
10
106.66455641326856
20
282.30114393479499
30
0
40
1.1000000000000032
210
0
220
-0
230
1
0
CIRCLE
5
199
100
AcDbEntity
8
0
100
AcDbCircle
10
149.14818318366289
20
272.4930258698605
30
0
40
1.1000000000000032
210
0
220
-0
230
1
0
LWPOLYLINE
5
200
100
AcDbEntity
8
0
100
AcDbPolyline
90
53
70
1
43
0.0
10
73.246652974221206
20
203.55775427899161
42
-0.41421356237310009
10
71.354065817197963
20
205.65968526098661
10
72.051136876126819
20
218.96059341746775
10
53.190618045206904
20
221.94780613673339
10
53.190618045206946
20
207.13809266204268
42
-0.4142135623730937
10
51.190618045206968
20
205.13809266204271
10
34.190618045206811
20
205.1380926620426
10
34.190618045206811
20
204.13809266204268
42
-0.41421356237311197
10
32.190618045206776
20
202.13809266204268
10
16.19061804520679
20
202.13809266204265
42
-0.41421356237310608
10
14.190618045206776
20
204.13809266204265
10
14.190618045207168
20
258.13809266204271
42
-0.41421356237308821
10
16.190618045207149
20
260.13809266204271
10
33.190618045206833
20
260.13809266204271
10
33.190618045206811
20
261.13809266204265
42
-0.41421356237308982
10
35.190618045206804
20
263.13809266204265
10
51.190618045206861
20
263.1380926620426
42
-0.4142135623730937
10
53.190618045206847
20
261.1380926620426
10
53.190618045206904
20
234.13809266204268
10
54.698342031562134
20
234.13809266204268
10
61.538272590326031
20
277.32371458771036
42
-0.41421356237308266
10
63.826518201596741
20
278.98622233882008
10
79.629531651118924
20
276.48327089817644
42
-0.41421356237309309
10
81.292039402228781
20
274.19502528690566
10
77.068308846142529
20
247.52744009083699
10
78.073573708389532
20
247.36822177825204
10
85.714973264328705
20
280.46675960056831
42
-0.41421356237309193
10
88.113615502586953
20
281.96559762145102
10
103.70353653915068
20
278.36638075194918
42
-0.41421356237310636
10
105.20237456003343
20
275.96773851369096
10
98.460779221469679
20
246.76668095051568
10
99.434102008888743
20
246.46910631143882
10
107.32813803640261
20
272.2893347224408
42
-0.41421356237310003
10
109.82549095777415
20
273.61720082492138
10
125.12636705318275
20
268.93925354935755
42
-0.41421356237309903
10
126.45423315566335
20
266.44190062798606
10
142.71141400703496
20
261.47158164769957
42
-0.41421356237309009
10
144.03928010951552
20
258.97422872632808
10
127.81265049740367
20
205.8993147703795
10
130.68156476529279
20
205.02219965621126
10
135.79806959794067
20
221.75753288556439
42
-0.41421356237310752
10
138.29542251931221
20
223.08539898804503
10
153.59629861472089
20
218.40745171248125
42
-0.063254223929933739
10
154.05588295490364
20
218.20053254506564
10
154.07445099270228
20
218.26126586011983
42
-0.34199871311966623
10
154.94273275500021
20
215.97083210616387
10
144.67258701410691
20
182.37869901734922
42
-0.34199871311962388
10
142.67195450851565
20
180.96538037756144
10
142.69052254631436
20
181.02611369261558
42
-0.063254223929886041
10
142.19380213053404
20
181.1115662299228
10
91.031497686511571
20
196.7534524325892
42
-0.41421356237306961
10
89.703631584031015
20
199.25080535396074
10
90.74010625351417
20
202.64096124063218
0
ARC
5
201
100
AcDbEntity
8
0
100
AcDbCircle
10
153.77955795281505
20
189.93428522976563
30
0
40
4.000000000000008
210
-0
220
0
230
1
100
AcDbArc
50
307.9031987724149
51
343.00000000000017
0
LINE
5
202
100
AcDbEntity
8
0
100
AcDbLine
10
157.60477697666718
20
188.7647984108747
30
0
11
166.86578073551115
21
219.05617680528067
31
0
0
ARC
5
203
100
AcDbEntity
8
0
100
AcDbCircle
10
161.12795219973293
20
220.81040703361711
30
0
40
6.0000000000000089
210
-0
220
0
230
1
100
AcDbArc
50
-17.000000000000163
51
73.000000000000099
0
LINE
5
204
100
AcDbEntity
8
0
100
AcDbLine
10
162.88218242806934
20
226.54823556939533
30
0
11
141.8434777968825
21
232.98041307329555
31
0
0
LINE
5
205
100
AcDbEntity
8
0
100
AcDbLine
10
141.8434777968825
20
232.98041307329555
30
0
11
153.63357491413808
21
271.54408310145328
31
0
0
SPLINE
5
206
100
AcDbEntity
8
0
100
AcDbSpline
70
0
71
3
72
16
73
12
74
0
42
0.000000001
43
0.0000000001
44
0.0000000001
40
0
40
0
40
0
40
0
40
0.28171572715219256
40
0.28171572715219256
40
0.45089860510760499
40
0.45089860510760499
40
0.59026282843711297
40
0.59026282843711297
40
0.71875817030145439
40
0.71875817030145439
40
0.86635582002533473
40
0.86635582002533473
40
0.86635582002533473
40
0.86635582002533473
10
153.63357491413808
20
271.54408310145328
30
0
10
153.90812727212037
20
272.44210340047067
30
0
10
154.11275579042018
20
273.43210217784002
30
0
10
154.07079280366045
20
274.93811306284647
30
0
10
153.97167370444816
20
275.49795416240988
30
0
10
153.55764276083877
20
276.44250610891896
30
0
10
153.29477047159119
20
276.81586319851272
30
0
10
152.64536566465668
20
277.43218991403893
30
0
10
152.28581704900577
20
277.66809953228238
30
0
10
151.45694512606309
20
278.07350650944619
30
0
10
150.97832348064557
20
278.22832933675045
30
0
10
150.49788950972612
20
278.3392462585719
30
0
0
LINE
5
207
100
AcDbEntity
8
0
100
AcDbLine
10
150.49788950972612
20
278.3392462585719
30
0
11
146.9166462380482
21
279.1660414146848
31
0
0
ARC
5
208
100
AcDbEntity
8
0
100
AcDbCircle
10
146.0168420206727
20
275.26856115554386
30
0
40
4.0000000000000178
210
0
220
-0
230
1
100
AcDbArc
50
76.999999999999375
51
112.09680122079057
0
ARC
5
209
100
AcDbEntity
8
0
100
AcDbCircle
10
141.87894413376176
20
285.46060712666741
30
0
40
6.999999999999905
210
0
220
0
230
1
100
AcDbArc
50
221.90319877920982
51
292.09680122079044
0
ARC
5
210
100
AcDbEntity
8
0
100
AcDbCircle
10
133.69192726832392
20
278.11399193019537
30
0
40
4.0000000000000027
210
0
220
-0
230
1
100
AcDbArc
50
41.90319877920976
51
76.999999999999986
0
LINE
5
211
100
AcDbEntity
8
0
100
AcDbLine
10
134.59173148569937
20
282.01147218933625
30
0
11
60.421936961750006
21
299.13491848723521
31
0
0
SPLINE
5
212
100
AcDbEntity
8
0
100
AcDbSpline
70
0
71
3
72
16
73
12
74
0
42
0.000000001
43
0.0000000001
44
0.0000000001
40
0
40
0
40
0
40
0
40
0.27139154084166528
40
0.27139154084166528
40
0.44461719525771248
40
0.44461719525771248
40
0.59759161416871676
40
0.59759161416871676
40
0.76043057735830644
40
0.76043057735830644
40
0.95270832419949403
40
0.95270832419949403
40
0.95270832419949403
40
0.95270832419949403
10
60.421936961750006
20
299.13491848723521
30
0
10
59.540484317643127
20
299.33841786474301
30
0
10
58.592185285420967
20
299.45261853125788
30
0
10
57.118647330484713
20
299.2720459629449
30
0
10
56.567274103018327
20
299.1107936842385
30
0
10
55.618363401594387
20
298.57585282208498
30
0
10
55.239603408650339
20
298.24569726933726
30
0
10
54.580370201172911
20
297.42251702554972
30
0
10
54.321965524359655
20
296.93797803660675
30
0
10
53.891019660950221
20
295.83356559162223
30
0
10
53.737466236081602
20
295.19212047865943
30
0
10
53.637109782797189
20
294.55849476972753
30
0
0
LINE
5
213
100
AcDbEntity
8
0
100
AcDbLine
10
53.637109782797189
20
294.55849476972753
30
0
11
50.323643603607302
21
273.63809266204265
31
0
0
LINE
5
214
100
AcDbEntity
8
0
100
AcDbLine
10
50.323643603607302
20
273.63809266204265
30
0
11
9.6906180452072022
21
273.63809266204282
31
0
0
ARC
5
215
100
AcDbEntity
8
0
100
AcDbCircle
10
9.6906180452071755
20
267.63809266204282
30
0
40
5.9999999999999787
210
0
220
-0
230
1
100
AcDbArc
50
89.999999999999744
51
180
0
LINE
5
216
100
AcDbEntity
8
0
100
AcDbLine
10
3.6906180452071888
20
267.63809266204288
30
0
11
3.6906180452071613
21
263.96264798237962
31
0
0
ARC
5
217
100
AcDbEntity
8
0
100
AcDbCircle
10
7.6906180452071737
20
263.96264798237962
30
0
40
4.0000000000000124
210
0
220
0
230
1
100
AcDbArc
50
180
51
215.09680122758533
0
ARC
5
218
100
AcDbEntity
8
0
100
AcDbCircle
10
-1.3093819547927976
20
257.63809266204288
30
0
40
6.9999999999999609
210
0
220
0
230
1
100
AcDbArc
50
-35.096801227585125
51
35.096801227584187
0
ARC
5
219
100
AcDbEntity
8
0
100
AcDbCircle
10
7.690618045207156
20
251.31353734170605
30
0
40
4.0000000000000338
210
0
220
0
230
1
100
AcDbArc
50
144.90319877241518
51
180
0
LINE
5
220
100
AcDbEntity
8
0
100
AcDbLine
10
3.6906180452071351
20
251.31353734170608
30
0
11
3.6906180452070014
21
213.96264798237937
31
0
0
ARC
5
221
100
AcDbEntity
8
0
100
AcDbCircle
10
7.6906180452069872
20
213.96264798237937
30
0
40
3.9999999999999858
210
0
220
0
230
1
100
AcDbArc
50
180
51
215.09680122758462
0
ARC
5
222
100
AcDbEntity
8
0
100
AcDbCircle
10
-1.309381954793063
20
207.63809266204274
30
0
40
7.0000000000000062
210
0
220
0
230
1
100
AcDbArc
50
-35.096801227584564
51
35.096801227583455
0
ARC
5
223
100
AcDbEntity
8
0
100
AcDbCircle
10
7.6906180452069517
20
201.31353734170597
30
0
40
4.0000000000000169
210
0
220
0
230
1
100
AcDbArc
50
144.90319877241535
51
180
0
LINE
5
224
100
AcDbEntity
8
0
100
AcDbLine
10
3.690618045206957
20
201.313537341706
30
0
11
3.6906180452069304
21
197.63809266204265
31
0
0
ARC
5
225
100
AcDbEntity
8
0
100
AcDbCircle
10
9.6906180452069179
20
197.63809266204262
30
0
40
5.9999999999999876
210
0
220
0
230
1
100
AcDbArc
50
180
51
269.99999999999983
0
LINE
5
226
100
AcDbEntity
8
0
100
AcDbLine
10
9.690618045206902
20
191.63809266204265
30
0
11
50.190618045206776
21
191.63809266204242
31
0
0
SPLINE
5
227
100
AcDbEntity
8
0
100
AcDbSpline
70
0
71
3
72
10
73
6
74
0
42
0.000000001
43
0.0000000001
44
0.0000000001
40
0
40
0
40
0
40
0
40
3.7074409309769192
40
3.7074409309769192
40
7.3346637182346912
40
7.3346637182346912
40
7.3346637182346912
40
7.3346637182346912
10
50.190618045206776
20
191.63809266204242
30
0
10
62.548754481796493
20
191.63809266204237
30
0
10
67.424152702649451
20
191.50693636412146
30
0
10
74.926235782468581
20
190.5121225877956
30
0
10
78.79106860247542
20
189.5159637146831
30
0
10
88.439747164904432
20
186.56606664261605
30
0
0
LINE
5
228
100
AcDbEntity
8
0
100
AcDbLine
10
88.439747164904432
20
186.56606664261605
30
0
11
145.33988014470498
21
169.16995021161316
31
0
0
ARC
5
229
100
AcDbEntity
8
0
100
AcDbCircle
10
147.09411037304147
20
174.90777874739138
30
0
40
6.0000000000000187
210
0
220
0
230
1
100
AcDbArc
50
252.99999999999932
51
343.00000000000017
0
LINE
5
230
100
AcDbEntity
8
0
100
AcDbLine
10
152.83193890881969
20
173.15354851905497
30
0
11
153.90653493542689
21
176.66839374649589
31
0
0
ARC
5
231
100
AcDbEntity
8
0
100
AcDbCircle
10
150.08131591157476
20
177.83788056538685
30
0
40
4.0000000000000018
210
-0
220
0
230
1
100
AcDbArc
50
-17.000000000000213
51
18.096801227584773
0
ARC
5
232
100
AcDbEntity
8
0
100
AcDbCircle
10
160.53717973586214
20
181.2547375550717
30
0
40
6.9999999999998899
210
0
220
0
230
1
100
AcDbArc
50
127.90319877241519
51
198.09680122758547
0
LWPOLYLINE
5
233
100
AcDbEntity
8
0
100
AcDbPolyline
90
6
70
1
43
0.0
10
21.125705919008944
20
98.137123094999112
10
22.519714897396206
20
96.153001382962358
10
24.935019193413943
20
96.368187715330947
10
25.956314511044418
20
98.567495759736289
10
24.562305532657156
20
100.55161747177306
10
22.147001236639419
20
100.33643113940445
0
CIRCLE
5
234
100
AcDbEntity
8
0
100
AcDbCircle
10
28.317910441187877
20
7.1185983393299601
30
0
40
2.9999999999999893
210
-0
220
0
230
1
0
LWPOLYLINE
5
235
100
AcDbEntity
8
0
100
AcDbPolyline
90
6
70
1
43
0.0
10
115.86823612032507
20
80.24096546909351
10
117.08067168562326
20
82.340965469093504
10
115.86823612032507
20
84.440965469093499
10
113.44336498972862
20
84.440965469093499
10
112.23092942443043
20
82.340965469093504
10
113.44336498972866
20
80.24096546909351
0
CIRCLE
5
236
100
AcDbEntity
8
0
100
AcDbCircle
10
125.65580055577682
20
48.739844800676472
30
0
40
2.9999999999999982
210
-0
220
0
230
1
0
CIRCLE
5
237
100
AcDbEntity
8
0
100
AcDbCircle
10
17.617507171776872
20
170.75200668756304
30
0
40
3.0000000000000071
210
-0
220
0
230
1
0
CIRCLE
5
238
100
AcDbEntity
8
0
100
AcDbCircle
10
66.336010411038856
20
181.99955940475604
30
0
40
2.9999999999999893
210
-0
220
0
230
1
0
LWPOLYLINE
5
239
100
AcDbEntity
8
0
100
AcDbPolyline
90
6
70
1
43
0.0
10
76.900414522244063
20
175.30443771286826
10
76.191450816058619
20
172.98552191808142
10
77.845208950488285
20
171.21208344077024
10
80.207930791103365
20
171.75756075824597
10
80.916894497288823
20
174.07647655303282
10
79.263136362859143
20
175.84991503034394
0
LWPOLYLINE
5
240
100
AcDbEntity
8
0
100
AcDbPolyline
90
6
70
1
43
0.0
10
12.71098996232201
20
158.32990274896247
10
11.057231827892373
20
160.10334122627364
10
8.6945099872772502
20
159.55786390879797
10
7.9855462810918354
20
157.23894811401118
10
9.6393044155214724
20
155.46550963669998
10
12.002026256136595
20
156.01098695417565
0
LWPOLYLINE
5
241
100
AcDbEntity
8
0
100
AcDbPolyline
90
6
70
1
43
0.0
10
16.690626883379061
20
18.95851808898362
10
17.753620421714338
20
16.779058353760785
10
20.172584688110256
20
16.609907894406408
10
21.52855541617086
20
18.620217170274938
10
20.465561877835583
20
20.799676905497702
10
18.046597611439665
20
20.968827364852078
0
LWPOLYLINE
5
242
100
AcDbEntity
8
0
100
AcDbPolyline
90
6
70
1
43
0.0
10
113.29982982696619
20
133.19547418993545
10
112.23683628863091
20
131.01601445471263
10
113.59280701669151
20
129.00570517884415
10
116.01177128308743
20
129.17485563819852
10
117.0747648214227
20
131.35431537342131
10
115.71879409336206
20
133.36462464928977
0
LWPOLYLINE
5
243
100
AcDbEntity
8
0
100
AcDbPolyline
90
6
70
1
43
0.0
10
115.71879409336206
20
36.560385065453708
10
117.0747648214227
20
38.570694341322167
10
116.0117712830874
20
40.750154076544931
10
113.59280701669151
20
40.919304535899272
10
112.23683628863091
20
38.908995260030814
10
113.29982982696619
20
36.729535524808014
0
LINE
5
244
100
AcDbEntity
8
0
100
AcDbLine
10
107.98140937066651
20
39.640775958010785
30
0
11
66.38218022768838
21
42.54967743128681
31
0
0
ARC
5
245
100
AcDbEntity
8
0
100
AcDbCircle
10
66.277545517072255
20
41.0533313558971
30
0
40
1.4999999999999689
210
0
220
-0
230
1
100
AcDbArc
50
86.000000000002331
51
176.00000000000023
0
LINE
5
246
100
AcDbEntity
8
0
100
AcDbLine
10
64.781199441682531
20
41.157966066513282
30
0
11
64.467295309833958
21
36.668927840344132
31
0
0
LINE
5
247
100
AcDbEntity
8
0
100
AcDbLine
10
64.467295309833958
20
36.668927840344132
30
0
11
74.442935812432211
21
35.971363102902806
31
0
0
LINE
5
248
100
AcDbEntity
8
0
100
AcDbLine
10
74.442935812432211
20
35.971363102902806
30
0
11
74.512692286176346
21
36.96892715316266
31
0
0
LINE
5
249
100
AcDbEntity
8
0
100
AcDbLine
10
74.512692286176346
20
36.96892715316266
30
0
11
114.740172727212
21
34.15594769340106
31
0
0
SPLINE
5
250
100
AcDbEntity
8
0
100
AcDbSpline
70
0
71
3
72
16
73
12
74
0
42
0.000000001
43
0.0000000001
44
0.0000000001
40
0
40
0
40
0
40
0
40
0.28171572715219256
40
0.28171572715219256
40
0.45089860510760499
40
0.45089860510760499
40
0.59026282843711297
40
0.59026282843711297
40
0.71875817030145439
40
0.71875817030145439
40
0.86635582002533473
40
0.86635582002533473
40
0.86635582002533473
40
0.86635582002533473
10
114.74017272721201
20
34.15594769340106
30
0
10
115.67693766654479
20
34.090442707653061
30
0
10
116.68759424032783
20
34.113760073788761
30
0
10
118.14556654580383
20
34.493426288351962
30
0
10
118.66876200838146
20
34.715941817084747
30
0
10
119.49596845239859
20
35.331839130682205
30
0
10
119.80062302535003
20
35.671961091137511
30
0
10
120.25506903107031
20
36.443365039420065
30
0
10
120.40405146090309
20
36.846766564699031
30
0
10
120.61261227052461
20
37.745591280906716
30
0
10
120.65580055502681
20
38.246773442798336
30
0
10
120.65580055502681
20
38.739844800676472
30
0
0
LINE
5
251
100
AcDbEntity
8
0
100
AcDbLine
10
120.65580055502681
20
38.739844800676472
30
0
11
120.6558005550268
21
40.239844800676458
31
0
0
ARC
5
252
100
AcDbEntity
8
0
100
AcDbCircle
10
122.65580055502683
20
40.239844800676458
30
0
40
2.0000000000000018
210
0
220
0
230
1
100
AcDbArc
50
90.000000000000398
51
180
0
LINE
5
253
100
AcDbEntity
8
0
100
AcDbLine
10
122.65580055502681
20
42.239844800676458
30
0
11
125.65580055577682
21
42.239844800676487
31
0
0
ARC
5
254
100
AcDbEntity
8
0
100
AcDbCircle
10
125.65580055577682
20
48.739844800676472
30
0
40
6.4999999999999858
210
0
220
0
230
1
100
AcDbArc
50
270
51
359.99999270535483
0
LINE
5
255
100
AcDbEntity
8
0
100
AcDbLine
10
132.15580055577675
20
48.739843972244884
30
0
11
132.15580055445184
21
48.739909800104535
31
0
0
ARC
5
256
100
AcDbEntity
8
0
100
AcDbCircle
10
125.65580055577682
20
48.739844800676472
30
0
40
6.4999999990000132
210
0
220
-0
230
1
100
AcDbArc
50
0.00057295272992670117
51
90.000000008814638
0
LINE
5
257
100
AcDbEntity
8
0
100
AcDbLine
10
125.65580055477683
20
55.239844800676494
30
0
11
122.6558005550268
21
55.239844800676494
31
0
0
ARC
5
258
100
AcDbEntity
8
0
100
AcDbCircle
10
122.6558005550268
20
57.239844800676487
30
0
40
2.0000000000000107
210
0
220
0
230
1
100
AcDbArc
50
180
51
270
0
LINE
5
259
100
AcDbEntity
8
0
100
AcDbLine
10
120.65580055502679
20
57.239844800676487
30
0
11
120.65580055502681
21
131.185164914067
31
0
0
SPLINE
5
260
100
AcDbEntity
8
0
100
AcDbSpline
70
0
71
3
72
16
73
12
74
0
42
0.000000001
43
0.0000000001
44
0.0000000001
40
0
40
0
40
0
40
0
40
0.27139154084168199
40
0.27139154084168199
40
0.4446171952577409
40
0.4446171952577409
40
0.5975916141687585
40
0.5975916141687585
40
0.76043057735837416
40
0.76043057735837416
40
0.9527083241995844
40
0.9527083241995844
40
0.9527083241995844
40
0.9527083241995844
10
120.65580055502681
20
131.185164914067
30
0
10
120.65580055502681
20
132.08980338353928
30
0
10
120.55375339872583
20
133.03948713334063
30
0
10
120.04633497706163
20
134.43463841632774
30
0
10
119.76518359495621
20
134.93560611358467
30
0
10
119.03049476967986
20
135.73986078425347
30
0
10
118.62359862260379
20
136.03464434342834
30
0
10
117.67322123005414
20
136.49180618275165
30
0
10
117.14297253951024
20
136.63459040800552
30
0
10
115.96992438760208
20
136.806052412925
30
0
10
115.31037746650605
20
136.81137651899749
30
0
10
114.67041625346788
20
136.76662607160222
30
0
0
LINE
5
261
100
AcDbEntity
8
0
100
AcDbLine
10
114.67041625346789
20
136.76662607160222
30
0
11
93.5408349859282
21
135.28910181586187
31
0
0
LINE
5
262
100
AcDbEntity
8
0
100
AcDbLine
10
93.5408349859282
20
135.28910181586187
30
0
11
84.40039304538513
21
174.88070556162032
31
0
0
ARC
5
263
100
AcDbEntity
8
0
100
AcDbCircle
10
78.5541726566737
20
173.53099923555718
30
0
40
6.0000000000000018
210
0
220
-0
230
1
100
AcDbArc
50
12.999999999999515
51
102.9999999999998
0
LINE
5
264
100
AcDbEntity
8
0
100
AcDbLine
10
77.204466330610529
20
179.37721962426861
30
0
11
75.742911233432693
21
179.03979304275276
31
0
0
ARC
5
265
100
AcDbEntity
8
0
100
AcDbCircle
10
75.293009124744984
20
180.98853317232326
30
0
40
2.0000000000000093
210
0
220
0
230
1
100
AcDbArc
50
192.99999999999974
51
282.99999999999926
0
LINE
5
266
100
AcDbEntity
8
0
100
AcDbLine
10
73.344268995174502
20
180.53863106363553
30
0
11
72.669415832142889
21
183.46174125799115
31
0
0
ARC
5
267
100
AcDbEntity
8
0
100
AcDbCircle
10
66.336010411038856
20
181.99955940475604
30
0
40
6.5000000000000036
210
0
220
-0
230
1
100
AcDbArc
50
12.999999999999854
51
192.99999852122079
0
LINE
5
268
100
AcDbEntity
8
0
100
AcDbLine
10
60.002604952196556
20
180.53737771498336
30
0
11
60.677458152966409
21
177.61426735716532
31
0
0
ARC
5
269
100
AcDbEntity
8
0
100
AcDbCircle
10
58.728718023395928
20
177.16436524847754
30
0
40
1.999999999999976
210
0
220
0
230
1
100
AcDbArc
50
-76.999999999998764
51
13.000000000001297
0
LINE
5
270
100
AcDbEntity
8
0
100
AcDbLine
10
59.178620132083694
20
175.2156251189071
30
0
11
27.024407994170687
21
167.79224032555965
31
0
0
ARC
5
271
100
AcDbEntity
8
0
100
AcDbCircle
10
26.574505885482949
20
169.74098045513017
30
0
40
2.0000000000000093
210
0
220
0
230
1
100
AcDbArc
50
192.99999999999972
51
282.99999999999983
0
LINE
5
272
100
AcDbEntity
8
0
100
AcDbLine
10
24.625765755912465
20
169.29107834644245
30
0
11
23.950912592880869
21
172.21418854079815
31
0
0
ARC
5
273
100
AcDbEntity
8
0
100
AcDbCircle
10
17.617507171776872
20
170.75200668756304
30
0
40
6.4999999999999689
210
0
220
-0
230
1
100
AcDbArc
50
12.999999999999938
51
192.99999999999991
0
LINE
5
274
100
AcDbEntity
8
0
100
AcDbLine
10
11.284101750672871
20
169.28982483432793
30
0
11
11.958954913704432
21
166.36671463997226
31
0
0
ARC
5
275
100
AcDbEntity
8
0
100
AcDbCircle
10
10.010214784133943
20
165.91681253128451
30
0
40
2.0000000000000022
210
0
220
0
230
1
100
AcDbArc
50
-77.000000000000355
51
13.000000000000506
0
LINE
5
276
100
AcDbEntity
8
0
100
AcDbLine
10
10.460116892821667
20
163.96807240171401
30
0
11
8.9985617956437736
21
163.63064582019825
31
0
0
ARC
5
277
100
AcDbEntity
8
0
100
AcDbCircle
10
10.348268121706923
20
157.78442543148685
30
0
40
5.999999999999968
210
0
220
0
230
1
100
AcDbArc
50
102.99999999999964
51
193.00000000000011
0
LINE
5
278
100
AcDbEntity
8
0
100
AcDbLine
10
4.5020477329955302
20
156.43471910542365
30
0
11
13.612565433921837
21
116.97273148162175
31
0
0
SPLINE
5
279
100
AcDbEntity
8
0
100
AcDbSpline
70
0
71
3
72
10
73
6
74
0
42
0.000000001
43
0.0000000001
44
0.0000000001
40
0
40
0
40
0
40
0
40
0.90581857175681202
40
0.90581857175681202
40
1.2940374105598331
40
1.2940374105598331
40
1.2940374105598331
40
1.2940374105598331
10
13.612565433921837
20
116.97273148162175
30
0
10
14.291781576458327
20
114.03072314680057
30
0
10
15.60673405661877
20
108.29852380784465
30
0
10
16.727222231556205
20
102.84814733037501
30
0
10
17.0915417064613
20
100.9730484576562
30
0
10
17.356850828905159
20
99.250812177571802
30
0
0
SPLINE
5
280
100
AcDbEntity
8
0
100
AcDbSpline
70
0
71
3
72
10
73
6
74
0
42
0.000000001
43
0.0000000001
44
0.0000000001
40
0
40
0
40
0
40
0
40
0.0064012114232048795
40
0.0064012114232048795
40
0.012766436248477448
40
0.012766436248477448
40
0.012766436248477448
40
0.012766436248477448
10
17.356850828366213
20
99.250812181070231
30
0
10
17.36009951189132
20
99.229723571014773
30
0
10
17.363337650485668
20
99.208633287376088
30
0
10
17.369774404219847
20
99.166568118311304
30
0
10
17.372973152162778
20
99.145593166071762
30
0
10
17.376161203210465
20
99.124616626235706
30
0
0
SPLINE
5
281
100
AcDbEntity
8
0
100
AcDbSpline
70
0
71
3
72
10
73
6
74
0
42
0.000000001
43
0.0000000001
44
0.0000000001
40
0
40
0
40
0
40
0
40
0.67186889294978946
40
0.67186889294978946
40
1.5470133459777424
40
1.5470133459777424
40
1.5470133459777424
40
1.5470133459777424
10
17.376161203210465
20
99.124616626235692
30
0
10
17.712669659002707
20
96.91047923553775
30
0
10
17.885204397572885
20
94.973392323391607
30
0
10
17.964192246700001
20
89.757965735071849
30
0
10
17.786390233162699
20
85.88023508780195
30
0
10
17.274717035991607
20
78.56296746255363
30
0
0
LINE
5
282
100
AcDbEntity
8
0
100
AcDbLine
10
17.27471703599161
20
78.56296746255363
30
0
11
13.124206848215998
21
19.207906472094063
31
0
0
ARC
5
283
100
AcDbEntity
8
0
100
AcDbCircle
10
19.109591149774907
20
18.789367629629279
30
0
40
5.9999999999999654
210
0
220
0
230
1
100
AcDbArc
50
175.99999999999969
51
266.00000000000028
0
LINE
5
284
100
AcDbEntity
8
0
100
AcDbLine
10
18.691052307310191
20
12.803983328070355
30
0
11
20.187398382699975
21
12.699348617454103
31
0
0
ARC
5
285
100
AcDbEntity
8
0
100
AcDbCircle
10
20.047885435211722
20
10.704220516934459
30
0
40
2.0000000000000036
210
0
220
0
230
1
100
AcDbArc
50
-3.9999999999991407
51
85.999999999999929
0
LINE
5
286
100
AcDbEntity
8
0
100
AcDbLine
10
22.043013535731376
20
10.564707569446236
30
0
11
21.833744114499005
21
7.5720154186667621
31
0
0
ARC
5
287
100
AcDbEntity
8
0
100
AcDbCircle
10
28.317910441187877
20
7.1185983393299601
30
0
40
6.5000000000000133
210
0
220
0
230
1
100
AcDbArc
50
176.00000000000017
51
356.00000000000017
0
LINE
5
288
100
AcDbEntity
8
0
100
AcDbLine
10
34.802076767876756
20
6.6651812599931564
30
0
11
35.011346189109069
21
9.6578734107725772
31
0
0
ARC
5
289
100
AcDbEntity
8
0
100
AcDbCircle
10
37.006474289628734
20
9.5183604632842957
30
0
40
2.0000000000000022
210
0
220
-0
230
1
100
AcDbArc
50
85.999999999999432
51
175.99999999999923
0
LINE
5
290
100
AcDbEntity
8
0
100
AcDbLine
10
37.145987237117005
20
11.513488563803946
30
0
11
66.574126719724887
21
9.4556725883562365
31
0
0
ARC
5
291
100
AcDbEntity
8
0
100
AcDbCircle
10
66.992665562189643
20
15.441056889915217
30
0
40
6.0000000000000338
210
0
220
0
230
1
100
AcDbArc
50
266
51
325.99999950707269
0
LINE
5
292
100
AcDbEntity
8
0
100
AcDbLine
10
71.966890968654781
20
12.085899426296452
30
0
11
37.355256655277529
21
14.506180669699464
31
0
0
LINE
5
293
100
AcDbEntity
8
0
100
AcDbLine
10
37.355256655277529
20
14.506180669699464
30
0
11
37.843551974542784
21
21.489129066117147
31
0
0
LINE
5
294
100
AcDbEntity
8
0
100
AcDbLine
10
37.843551974542784
20
21.489129066117147
30
0
11
25.87278337144042
21
22.32620675133176
31
0
0
ARC
5
295
100
AcDbEntity
8
0
100
AcDbCircle
10
26.047174555800723
20
24.820116876981352
30
0
40
2.5000000000000391
210
0
220
0
230
1
100
AcDbArc
50
175.99999999999989
51
266.00000000000023
0
LINE
5
296
100
AcDbEntity
8
0
100
AcDbLine
10
23.553264430151124
20
24.994508061341676
30
0
11
27.433685947370172
21
80.487121114454098
31
0
0
LINE
5
297
100
AcDbEntity
8
0
100
AcDbLine
10
27.433685947370172
20
80.487121114454098
30
0
11
27.433613379183903
21
80.487121114454098
31
0
0
ARC
5
298
100
AcDbEntity
8
0
100
AcDbCircle
10
-85.665678765126955
20
88.267365906331591
30
0
40
113.36658278595908
210
-0
220
0
230
1
100
AcDbArc
50
-3.9352501667270232
51
15.856396578658094
0
LINE
5
299
100
AcDbEntity
8
0
100
AcDbLine
10
23.387251171762529
20
119.24220351277572
30
0
11
23.052631922586038
21
120.69159871765451
31
0
0
LINE
5
300
100
AcDbEntity
8
0
100
AcDbLine
10
23.052631922586038
20
120.69159871765451
30
0
11
16.270307869942684
21
149.91489906579511
31
0
0
LINE
5
301
100
AcDbEntity
8
0
100
AcDbLine
10
16.270307869942684
20
149.91489906579511
30
0
11
15.707930234082959
21
152.35082422775838
31
0
0
ARC
5
302
100
AcDbEntity
8
0
100
AcDbCircle
10
18.143855396046057
20
152.91320186361799
30
0
40
2.5000000000000302
210
0
220
0
230
1
100
AcDbArc
50
102.99999999999977
51
192.99999999999861
0
LINE
5
303
100
AcDbEntity
8
0
100
AcDbLine
10
17.581477760186395
20
155.34912702558111
30
0
11
73.120571452945143
21
168.17133712318105
31
0
0
ARC
5
304
100
AcDbEntity
8
0
100
AcDbCircle
10
73.682949088804762
20
165.73541196121789
30
0
40
2.500000000000036
210
0
220
-0
230
1
100
AcDbArc
50
13.000000000001128
51
102.99999999999868
0
LINE
5
305
100
AcDbEntity
8
0
100
AcDbLine
10
76.118874250767874
20
166.29778959707761
30
0
11
85.718397844973211
21
124.71768474415467
31
0
0
LINE
5
306
100
AcDbEntity
8
0
100
AcDbLine
10
85.718397844973211
20
124.71768474415467
30
0
11
107.98140937066648
21
126.27446616440798
31
0
0
ARC
5
307
100
AcDbEntity
8
0
100
AcDbCircle
10
108.15580055502679
20
123.78055603875843
30
0
40
2.4999999999999645
210
0
220
0
230
1
100
AcDbArc
50
0
51
93.999999999999787
0
LINE
5
308
100
AcDbEntity
8
0
100
AcDbLine
10
110.65580055502676
20
123.78055603875843
30
0
11
110.65580055502681
21
42.134686083660355
31
0
0
ARC
5
309
100
AcDbEntity
8
0
100
AcDbCircle
10
108.1558005550268
20
42.134686083660355
30
0
40
2.5000000000000093
210
0
220
0
230
1
100
AcDbArc
50
-93.999999999999446
51
0
0
ENDSEC
0
SECTION
2
OBJECTS
0
DICTIONARY
5
C
100
AcDbDictionary
3
ACAD_GROUP
350
D
3
ACAD_MLINESTYLE
350
17
0
DICTIONARY
5
D
100
AcDbDictionary
0
DICTIONARY
5
1A
330
C
100
AcDbDictionary
0
DICTIONARY
5
17
100
AcDbDictionary
0
ENDSEC
0
EOF
